<?xml version="1.0" encoding="UTF-8" standalone="no"?>
<svg
   xmlns:dc="http://purl.org/dc/elements/1.1/"
   xmlns:cc="http://creativecommons.org/ns#"
   xmlns:rdf="http://www.w3.org/1999/02/22-rdf-syntax-ns#"
   xmlns:svg="http://www.w3.org/2000/svg"
   xmlns="http://www.w3.org/2000/svg"
   viewBox="0 0 4004.8933 2666.6667"
   height="2666.6667"
   width="4004.8933"
   xml:space="preserve"
   id="svg2"
   version="1.1"><metadata
     id="metadata8"><rdf:RDF><cc:Work
         rdf:about=""><dc:format>image/svg+xml</dc:format><dc:type
           rdf:resource="http://purl.org/dc/dcmitype/StillImage" /></cc:Work></rdf:RDF></metadata><defs
     id="defs6"><clipPath
       id="clipPath24"
       clipPathUnits="userSpaceOnUse"><path
         id="path22"
         d="m 10736.1,1935.9 -7359.46,7359.5 1790.29,1789.8 732.18,-732.2 -21.43,-0.8 c 2.34,-58.6 5.2,-118.2 8.5,-177.3 l 32.76,1.8 c -3.05,54.8 -5.72,110.1 -7.96,164.5 L 7358.07,8894.1 v -2884 c 0,-365.8 296.63,-662.9 662.87,-662.9 H 13119.7 V 4319.4 L 10736.1,1935.9 m -4805.95,8064.2 -32.74,-2.3 c 3.32,-46.8 7,-94.4 10.9,-141.5 l 32.72,2.8 c -3.91,46.9 -7.56,94.4 -10.88,141 m 15799.05,2928.8 v 3580.6 l 893.4,893.4 1790.3,-1790.2 -2683.7,-2683.8" /></clipPath><linearGradient
       id="linearGradient32"
       spreadMethod="pad"
       gradientTransform="matrix(-6835.43,-8607.59,-8607.59,6835.43,18033.6,17665.8)"
       gradientUnits="userSpaceOnUse"
       y2="0"
       x2="1"
       y1="0"
       x1="0"><stop
         id="stop28"
         offset="0"
         style="stop-opacity:1;stop-color:#ff9f55" /><stop
         id="stop30"
         offset="1"
         style="stop-opacity:1;stop-color:#ffd255" /></linearGradient><clipPath
       id="clipPath44"
       clipPathUnits="userSpaceOnUse"><path
         id="path42"
         d="m 14147.5,5347.2 v 0 H 8020.94 c -366.24,0 -662.87,297.1 -662.87,662.9 v 2884 4984.4 c 0,313.7 217.58,576.3 510.12,645.2 V 6788.2 h 3797.21 c 317.3,-206.3 695.9,-326 1102.6,-326 8,0 16.1,0 24.2,0.3 367.5,4.2 711.6,106.4 1007.4,281.7 23.9,14.2 47.6,28.8 70.9,44 h 1717.9 l 4166.1,4166 v 0 l -5607,-5607" /></clipPath><linearGradient
       id="linearGradient52"
       spreadMethod="pad"
       gradientTransform="matrix(-4.611e-4,10549.4,10549.4,4.611e-4,13874.3,3578.4)"
       gradientUnits="userSpaceOnUse"
       y2="0"
       x2="1"
       y1="0"
       x1="0"><stop
         id="stop48"
         offset="0"
         style="stop-opacity:1;stop-color:#ff9f55" /><stop
         id="stop50"
         offset="1"
         style="stop-opacity:1;stop-color:#ffd255" /></linearGradient><clipPath
       id="clipPath334"
       clipPathUnits="userSpaceOnUse"><path
         id="path332"
         d="m 18423.5,7134.8 -3589.2,614.8 93.5,549 3589.2,-614.8 z" /></clipPath><linearGradient
       id="linearGradient342"
       spreadMethod="pad"
       gradientTransform="matrix(759.489,-2081.57,-2081.57,-759.489,15991.5,9591.7)"
       gradientUnits="userSpaceOnUse"
       y2="0"
       x2="1"
       y1="0"
       x1="0"><stop
         id="stop338"
         offset="0"
         style="stop-opacity:1;stop-color:#40d5e6" /><stop
         id="stop340"
         offset="1"
         style="stop-opacity:1;stop-color:#5577ff" /></linearGradient><clipPath
       id="clipPath564"
       clipPathUnits="userSpaceOnUse"><path
         id="path562"
         d="m 20390.6,11590.3 v 1161.1 l 10.5,18.4 c -3.5,2 -7,4.1 -10.5,6.1 v 1102.6 c 0,313.6 -217.7,576.2 -510.2,645.1 v 137.2 l 1848.8,1848.7 v -3580.6 l -469.8,-469.8 c -11.9,2.6 -23.6,5.3 -35.2,7.9 l -7.3,-32 c 5,-1.1 10,-2.3 15,-3.4 l -841.3,-841.3 m 493.2,969.3 -10.1,-31.3 c 54.2,-17.6 111.6,-34.6 170.6,-50.5 l 8.6,31.7 c -58.5,15.8 -115.3,32.6 -169.1,50.1 m -327,129.1 -14.1,-29.7 c 52.4,-24.9 107.4,-48.7 163.4,-70.7 l 12,30.6 c -55.3,21.7 -109.6,45.2 -161.3,69.8" /></clipPath><linearGradient
       id="linearGradient572"
       spreadMethod="pad"
       gradientTransform="matrix(-6835.43,-8607.59,-8607.59,6835.43,18033.6,17665.8)"
       gradientUnits="userSpaceOnUse"
       y2="0"
       x2="1"
       y1="0"
       x1="0"><stop
         id="stop568"
         offset="0"
         style="stop-opacity:1;stop-color:#fff8f2" /><stop
         id="stop570"
         offset="1"
         style="stop-opacity:1;stop-color:#fffcf2" /></linearGradient><clipPath
       id="clipPath582"
       clipPathUnits="userSpaceOnUse"><path
         id="path580"
         d="m 19754.5,10954.2 v 0 l 125.9,126 v 3443.4 c 292.5,-68.9 510.2,-331.5 510.2,-645.1 v -1102.6 c -47.3,27.3 -93.8,56.5 -138.3,86.9 l -18.5,-27.2 c 48.6,-33.1 99.4,-64.8 151,-94.3 l 5.8,10.1 v -1161.1 l -636.1,-636.1 m 224.9,2128.4 -22.6,-23.9 c 43.2,-40.8 88.3,-80.2 134,-117 l 20.6,25.5 c -45,36.3 -89.5,75.2 -132,115.4" /></clipPath><linearGradient
       id="linearGradient590"
       spreadMethod="pad"
       gradientTransform="matrix(-4.611e-4,10549.4,10549.4,4.611e-4,13874.3,3578.4)"
       gradientUnits="userSpaceOnUse"
       y2="0"
       x2="1"
       y1="0"
       x1="0"><stop
         id="stop586"
         offset="0"
         style="stop-opacity:1;stop-color:#fff8f2" /><stop
         id="stop588"
         offset="1"
         style="stop-opacity:1;stop-color:#fffcf2" /></linearGradient><clipPath
       id="clipPath708"
       clipPathUnits="userSpaceOnUse"><path
         id="path706"
         d="m 23778.9,16769.2 -1132.2,1132.1 -537.4,-537.4 -29.8,29.9 567.2,567.2 1162,-1162 z" /></clipPath><linearGradient
       id="linearGradient716"
       spreadMethod="pad"
       gradientTransform="matrix(1729.19,0,0,-1729.19,22079.5,17365.1)"
       gradientUnits="userSpaceOnUse"
       y2="0"
       x2="1"
       y1="0"
       x1="0"><stop
         id="stop712"
         offset="0"
         style="stop-opacity:1;stop-color:#ff9f55" /><stop
         id="stop714"
         offset="1"
         style="stop-opacity:1;stop-color:#ffd255" /></linearGradient></defs><g
     transform="matrix(1.3333333,0,0,-1.3333333,0,2666.6667)"
     id="g10"><g
       transform="scale(0.1)"
       id="g12"><g
         transform="scale(1.84274)"
         id="g14"><path
           id="path16"
           style="fill:#f7f7f7;fill-opacity:1;fill-rule:nonzero;stroke:none"
           d="M 16300,10853.4 V 0 H 0 v 10853.4 h 16300" /></g><g
         id="g18"><g
           clip-path="url(#clipPath24)"
           id="g20"><g
             transform="scale(1.49772)"
             id="g26"><path
               id="path34"
               style="fill:url(#linearGradient32);fill-opacity:1;fill-rule:nonzero;stroke:none"
               d="m 7168.28,1292.56 -4913.77,4913.79 1195.34,1195.03 488.87,-488.87 -14.31,-0.56 c 1.56,-39.11 3.47,-78.94 5.67,-118.37 l 21.88,1.22 c -2.04,36.57 -3.82,73.45 -5.32,109.8 l 966.19,-966.19 V 4012.82 c 0,-244.23 198.06,-442.6 442.59,-442.6 H 8759.76 V 2883.97 L 7168.28,1292.56 m -3208.84,5384.31 -21.86,-1.54 c 2.22,-31.25 4.68,-63.03 7.28,-94.48 l 21.85,1.87 c -2.61,31.32 -5.05,63.03 -7.27,94.15 M 14508.1,8632.39 v 2390.71 l 596.6,596.5 1195.3,-1195.3 -1791.9,-1791.91" /></g></g></g><path
         id="path36"
         style="fill:#e3892b;fill-opacity:1;fill-rule:nonzero;stroke:none"
         d="m 14629,7555.7 v -1727 L 14147.5,5347.2 13119.7,4319.4 V 7555.7 H 14629" /><g
         id="g38"><g
           clip-path="url(#clipPath44)"
           id="g40"><g
             transform="scale(1.21193)"
             id="g46"><path
               id="path54"
               style="fill:url(#linearGradient52);fill-opacity:1;fill-rule:nonzero;stroke:none"
               d="m 11673.5,4412.13 v 0 h -848.1 -4207.09 c -302.2,0 -546.96,245.14 -546.96,546.98 v 2379.67 4112.72 c 0,258.8 179.53,475.5 420.92,532.4 V 5601.14 h 3133.19 c 261.81,-170.23 574.24,-269 909.74,-269 6.6,0 13.3,0 20,0.25 303.2,3.47 587.2,87.8 831.2,232.44 19.8,11.72 39.3,23.76 58.5,36.31 h 1417.5 L 16300,9038.66 v 0 L 11673.5,4412.13" /></g></g></g><g
         transform="scale(1.21966)"
         id="g56"><path
           id="path58"
           style="fill:#ffffff;fill-opacity:1;fill-rule:nonzero;stroke:none"
           d="M 16300,12724.7 V 9084.67 L 12781,5565.66 H 6451.15 V 12724.7 H 16300" /></g><g
         transform="scale(1.21965)"
         id="g60"><path
           id="path62"
           style="fill:#5d96ff;fill-opacity:1;fill-rule:nonzero;stroke:none"
           d="M 6451.27,11860.2 H 16300 v 864.7 H 6451.27 v -864.7" /></g><path
         id="path64"
         style="fill:#f5f7ff;fill-opacity:1;fill-rule:nonzero;stroke:none"
         d="M 9939.99,14793.4 H 8513.25 c -79.12,0 -143.26,64.1 -143.26,143.2 v 112 c 0,79.1 64.14,143.3 143.26,143.3 h 1426.74 c 79.11,0 143.21,-64.2 143.21,-143.3 v -112 c 0,-79.1 -64.1,-143.2 -143.21,-143.2" /><g
         transform="scale(1.25159)"
         id="g66"><path
           id="path68"
           style="fill:#323657;fill-opacity:1;fill-rule:nonzero;stroke:none"
           d="m 16299.5,4933.25 0.5,0.08 c -2.1,-0.96 -2.3,-1.04 -0.5,-0.08" /></g><g
         transform="scale(1.40064)"
         id="g70"><path
           id="path72"
           style="fill:#d6d6d6;fill-opacity:1;fill-rule:nonzero;stroke:none"
           d="m 15443.9,6358.25 856.1,478.78 -294.2,19.41 -561.9,-498.19" /></g><g
         transform="scale(1.36871)"
         id="g74"><path
           id="path76"
           style="fill:#e8e8e8;fill-opacity:1;fill-rule:nonzero;stroke:none"
           d="m 15804.2,6506.59 269.6,433.62 226.2,5.99 -495.8,-439.61" /></g><g
         transform="scale(1.3852)"
         id="g78"><path
           id="path80"
           style="fill:#c2c2c2;fill-opacity:1;fill-rule:nonzero;stroke:none"
           d="m 16282.6,6801.92 17.4,-109.08 -683.9,-263.72 666.5,372.8" /></g><g
         transform="scale(1.43942)"
         id="g82"><path
           id="path84"
           style="fill:#e0e0e0;fill-opacity:1;fill-rule:nonzero;stroke:none"
           d="m 9120.04,12444.3 -0.49,22.8 c 40.65,0.9 82.05,1.4 122.9,1.5 l 0.07,-22.8 c -40.71,-0.1 -81.98,-0.6 -122.48,-1.5 m 368.07,-2.3 c -40.72,1.4 -81.98,2.4 -122.76,3 l 0.34,22.8 c 40.92,-0.6 82.33,-1.6 123.18,-3 l -0.76,-22.8 m -613.03,-7.5 -1.32,22.8 c 40.71,2.3 82.05,4.4 122.83,6 l 0.97,-22.8 c -40.71,-1.6 -81.91,-3.6 -122.48,-6 m 858.54,-5.3 c -40.57,2.9 -81.84,5.4 -122.69,7.5 l 1.18,22.8 c 40.99,-2.1 82.4,-4.7 123.11,-7.6 l -1.6,-22.7 m -1103.15,-13.6 -2.22,22.7 c 40.71,3.9 81.97,7.5 122.68,10.6 l 1.74,-22.7 c -40.57,-3.1 -81.7,-6.7 -122.2,-10.6 m 1348.04,-8.3 c -40.57,4.4 -81.7,8.4 -122.34,12.1 l 2.08,22.7 c 40.71,-3.7 82.05,-7.8 122.76,-12.2 l -2.5,-22.6 m -1591.96,-19.8 -3.05,22.6 c 40.5,5.5 81.63,10.6 122.27,15.3 l 2.64,-22.7 c -40.5,-4.6 -81.49,-9.8 -121.86,-15.2 m 1835.85,-11.4 c -40.3,5.9 -81.3,11.5 -121.8,16.7 l 2.9,22.6 c 40.7,-5.2 81.8,-10.8 122.3,-16.8 l -3.4,-22.5 m -2078.58,-26.1 -3.89,22.5 c 40.08,7 81,13.7 121.64,20 l 3.47,-22.5 c -40.43,-6.3 -81.28,-13 -121.22,-20 m 2321.08,-14.5 c -40,7.5 -80.7,14.8 -121,21.5 l 3.7,22.5 c 40.5,-6.8 81.4,-14 121.5,-21.6 l -4.2,-22.4 m -2562.29,-32.5 -4.79,22.3 c 39.94,8.6 80.58,17 120.81,24.8 l 4.37,-22.4 c -40.08,-7.8 -80.58,-16.1 -120.39,-24.7 m 2802.89,-17.7 c -39.6,9.2 -80,18 -120,26.4 l 4.6,22.3 c 40.2,-8.4 80.8,-17.3 120.6,-26.4 l -5.2,-22.3 m -3042.01,-39 -5.77,22.1 c 39.46,10.2 79.75,20.2 119.77,29.7 l 5.28,-22.2 c -39.88,-9.5 -80.03,-19.4 -119.28,-29.6 m 3280.41,-21.1 c -39.2,10.8 -79.2,21.3 -118.9,31.3 l 5.7,22.2 c 39.8,-10.1 79.9,-20.7 119.2,-31.5 l -6,-22 m -3517.04,-45.6 -6.67,21.8 c 39.12,11.9 78.92,23.6 118.45,34.7 l 6.19,-21.9 c -39.32,-11.1 -79.06,-22.7 -117.97,-34.6 m 3752.54,-24.8 c -38.6,12.5 -78.2,24.8 -117.3,36.5 l 6.5,21.9 c 39.4,-11.8 79,-24.2 117.8,-36.7 l -7,-21.7 m -3986.1,-52 -7.58,21.5 c 38.56,13.6 77.81,27 116.79,39.9 l 7.15,-21.7 c -38.83,-12.8 -77.95,-26.1 -116.36,-39.7 m 4218,-29.3 c -37.9,14.3 -76.8,28.5 -115.5,42 l 7.5,21.5 c 39,-13.6 77.9,-27.8 116.1,-42.2 l -8.1,-21.3 m -4447.82,-57.8 -8.61,21.1 c 37.86,15.3 76.49,30.5 114.91,45.1 l 8.12,-21.4 c -38.28,-14.4 -76.76,-29.5 -114.42,-44.8 m 4675.32,-35 c -37,16.3 -75.1,32.4 -113.1,47.9 l 8.6,21.1 c 38.2,-15.6 76.5,-31.8 113.7,-48.1 l -9.2,-20.9 m -4900.84,-62.7 -9.55,20.7 c 37.06,17.1 74.96,34.1 112.65,50.4 l 9.07,-20.9 c -37.53,-16.3 -75.27,-33.1 -112.17,-50.2 m 5122.94,-42.2 c -36,18.3 -73.1,36.5 -110.3,54 l 9.7,20.7 c 37.5,-17.7 74.8,-36 110.9,-54.4 l -10.3,-20.3 m -5343.38,-66 -10.55,20.2 c 36.21,18.9 73.24,37.6 110.05,55.7 l 10.04,-20.5 c -36.63,-17.9 -73.48,-36.6 -109.54,-55.4 m 5558.68,-51.9 c -34.7,20.5 -70.6,40.9 -106.7,60.6 l 11,20 c 36.3,-19.9 72.4,-40.4 107.3,-61 l -11.6,-19.6 m -5773.32,-67.2 -11.56,19.7 c 35.1,20.6 71.11,41.2 107.05,61.1 l 11.06,-19.9 c -35.77,-19.8 -71.62,-40.3 -106.55,-60.9 m 5980.22,-64.9 c -33.1,22.9 -67.5,45.7 -102.2,67.9 l 12.2,19.2 c 35,-22.3 69.6,-45.3 103,-68.3 l -13,-18.8 m -6188.26,-64.9 -12.57,19.1 c 34.04,22.5 68.92,44.9 103.65,66.5 l 12.07,-19.3 c -34.57,-21.6 -69.26,-43.9 -103.15,-66.3 m 6384.56,-82.2 c -31.2,25.5 -63.7,50.9 -96.7,75.5 l 13.7,18.3 c 33.2,-24.9 66,-50.5 97.4,-76.1 l -14.4,-17.7 m -6585.19,-58.3 -13.58,18.4 c 32.72,24.2 66.31,48.4 99.84,71.9 l 13.08,-18.7 c -33.36,-23.3 -66.77,-47.4 -99.34,-71.6 M 12662,11315.3 c -28.6,28.2 -58.7,56.4 -89.4,83.8 l 15.2,17 c 31,-27.7 61.3,-56.1 90.3,-84.5 l -16.1,-16.3 m -6960.55,-46.2 -14.58,17.5 c 31.42,26.1 63.72,52.2 95.99,77.6 l 14.08,-18 c -32.11,-25.2 -64.24,-51.2 -95.49,-77.1 m 7126.05,-134.3 c -25.5,31.1 -52.5,62.2 -80.3,92.5 l 16.8,15.4 c 28.1,-30.6 55.4,-62 81.1,-93.4 l -17.6,-14.5 m -7310.3,-27.9 -15.55,16.6 c 29.89,27.9 60.67,55.8 91.45,82.9 l 15.07,-17.1 c -30.62,-27 -61.23,-54.7 -90.97,-82.4 m 7453.8,-170.1 c -21.5,33.9 -44.6,68 -68.8,101.2 l 18.5,13.4 c 24.4,-33.6 47.8,-68.1 69.6,-102.4 l -19.3,-12.2 m -7628.41,-2.5 -16.49,15.8 c 28.27,29.6 57.38,59.2 86.52,88 l 16.03,-16.3 c -28.99,-28.6 -57.94,-58 -86.06,-87.5 m -164.24,-182.3 -17.39,14.7 c 26.49,31.2 53.82,62.5 81.22,92.9 l 16.95,-15.3 c -27.25,-30.2 -54.44,-61.3 -80.78,-92.3 m 7908.95,-30 c -16.6,36.6 -34.9,73.4 -54.4,109.4 l 20,10.9 c 19.8,-36.5 38.3,-73.8 55.1,-110.9 l -20.7,-9.4 m -8062.21,-161.7 -18.22,13.7 c 24.63,32.7 50.07,65.5 75.62,97.5 l 17.82,-14.3 c -25.42,-31.8 -50.72,-64.4 -75.22,-96.9 m 8145.71,-67.3 c -10.9,38.8 -23.5,77.8 -37.3,116 l 21.4,7.8 c 14.1,-38.7 26.8,-78.3 37.8,-117.6 l -21.9,-6.2 m -8287.42,-133.1 -18.99,12.6 c 22.64,34.1 46.11,68.4 69.76,101.8 l 18.61,-13.2 c -23.52,-33.2 -46.86,-67.3 -69.38,-101.2 m 8348.32,-105.3 c -10.6,38.8 -21.1,79 -31.2,119.4 l 22.2,5.5 c 9.9,-40.2 20.4,-80.2 31,-118.8 l -22,-6.1 m -8478.1,-103 -19.7,11.5 c 20.68,35.4 42.12,71 63.72,105.6 l 19.35,-12 c -21.49,-34.5 -42.81,-69.9 -63.37,-105.1 m 8550.3,-132.8 c -13,38.1 -25.7,77.6 -37.8,117.4 l 21.8,6.6 c 12.1,-39.6 24.7,-78.8 37.6,-116.7 l -21.6,-7.3 m -8667.88,-82.64 -20.32,10.34 c 18.61,36.53 37.97,73.2 57.55,109.1 l 20.02,-10.9 c -19.47,-35.7 -38.74,-72.21 -57.25,-108.54 m 8755.28,-147.93 c -15.6,37.01 -31,75.53 -45.8,114.51 l 21.3,8.07 c 14.7,-38.7 30,-76.95 45.5,-113.71 l -21,-8.87 m -8860.53,-73.8 -20.86,9.21 c 16.56,37.55 33.85,75.29 51.35,112.17 l 20.6,-9.78 c -17.41,-36.69 -34.6,-74.23 -51.09,-111.6 m 8966.43,-149.02 c -19,35.48 -37.6,72.56 -55.4,110.21 l 20.5,9.77 c 17.8,-37.33 36.2,-74.08 55.1,-109.25 l -20.2,-10.73 m -9059.38,-78.17 -21.34,8.07 c 14.53,38.38 29.72,77 45.18,114.79 l 21.11,-8.63 c -15.38,-37.61 -30.51,-76.04 -44.95,-114.23 M 13625,9354.3 c -22.8,33.21 -45.3,68.12 -66.9,103.78 l 19.6,11.8 c 21.3,-35.28 43.5,-69.82 66.1,-102.66 l -18.8,-12.92 m -9267.98,-98.86 -21.73,6.94 c 12.52,39.11 25.67,78.47 39.09,116.99 l 21.53,-7.5 c -13.36,-38.33 -26.44,-77.51 -38.89,-116.43 m 9420.88,-94.96 c -27.1,29.96 -54,61.7 -79.7,94.34 l 17.9,14.1 c 25.4,-32.21 51.9,-63.54 78.7,-93.1 l -16.9,-15.34 m -9489.81,-140.7 -22.03,5.86 c 10.55,39.68 21.7,79.65 33.14,118.79 l 21.89,-6.4 c -11.39,-38.95 -22.49,-78.74 -33,-118.25 m 9669.41,-28.92 c -31.7,25.61 -63,52.98 -93.1,81.34 l 15.7,16.57 c 29.6,-27.95 60.5,-54.93 91.7,-80.16 l -14.3,-17.75 m 204.3,-139.17 c -35.9,20.47 -71.2,42.51 -104.9,65.51 l 12.8,18.84 c 33.2,-22.66 68,-44.37 103.4,-64.54 l -11.3,-19.81 m -9931.09,-70.67 -22.3,4.81 c 8.67,40.2 17.89,80.64 27.4,120.24 l 22.17,-5.32 c -9.47,-39.42 -18.64,-79.71 -27.27,-119.73 M 14385,8745.38 c -38.9,15.29 -77.1,31.82 -113.5,49.11 l 9.8,20.6 c 35.9,-17.07 73.6,-33.39 112,-48.49 l -8.3,-21.22 m 235,-76.78 c -41,11.06 -80.9,22.87 -118.6,35.12 l 7,21.68 c 37.4,-12.13 76.9,-23.83 117.5,-34.79 l -5.9,-22.01 m 240.7,-55.36 c -43.6,8.65 -83.1,17.03 -120.8,25.62 l 5,22.24 c 37.5,-8.55 76.9,-16.89 120.2,-25.5 l -4.4,-22.36 m 242.5,-44.74 -36.8,6.57 c -28,5.02 -56.2,10.06 -84.5,15.22 l 4,22.43 c 28.3,-5.15 56.5,-10.18 84.5,-15.19 l 36.8,-6.58 -4,-22.45 m -10918.78,-28.68 -22.49,3.8 c 6.84,40.53 14.21,81.37 21.88,121.36 l 22.39,-4.3 c -7.64,-39.82 -14.97,-80.49 -21.78,-120.86 m 11160.18,-18.14 c -36.2,7.96 -75.6,16 -120.4,24.55 l 4.3,22.4 c 44.9,-8.6 84.5,-16.67 121,-24.69 l -4.9,-22.26 m 236.2,-64.18 c -36.8,12.54 -75.1,24.08 -117,35.32 l 5.9,22.03 c 42.4,-11.37 81.2,-23.07 118.5,-35.76 l -7.4,-21.59 m 222.1,-99.01 c -33.9,19.64 -70.4,38.12 -108.4,54.93 l 9.2,20.87 c 38.9,-17.16 76,-36.02 110.6,-56.07 l -11.4,-19.73 m -11654.13,-61.69 -22.63,2.83 c 5.1,40.78 10.68,81.89 16.59,122.18 l 22.56,-3.31 c -5.88,-40.13 -11.44,-81.07 -16.52,-121.7 m 11845.83,-85.39 c -3.3,3.25 -6.6,6.49 -9.9,9.76 -25.5,24.78 -52.7,48.36 -81.1,70.09 l 13.9,18.12 c 29.1,-22.29 57,-46.48 83.1,-71.9 3.4,-3.31 6.7,-6.61 10,-9.9 l -16,-16.17 m -11871.36,-158.95 -22.73,1.92 c 3.45,40.96 7.35,82.26 11.57,122.75 l 22.69,-2.37 c -4.22,-40.34 -8.09,-81.48 -11.53,-122.3 m 12027.16,-28.18 c -21.6,32.49 -46.2,65.27 -73.1,97.41 l 17.5,14.65 c 27.5,-32.8 52.6,-66.26 74.6,-99.46 l -19,-12.6 m -12043.09,-217.04 -22.78,1.05 c 1.89,41.07 4.18,82.5 6.82,123.12 l 22.76,-1.48 c -2.63,-40.48 -4.92,-81.76 -6.8,-122.69 m 12146.09,-1.61 c -10.7,37.69 -25.2,75.76 -43,113.15 l 20.6,9.83 c 18.4,-38.57 33.3,-77.85 44.3,-116.77 l -21.9,-6.21 m 42.4,-241.95 -22.6,2.63 c 2.6,23.27 4,46.88 4,70.15 0,16.74 -0.7,33.71 -2.1,50.42 l 22.7,1.91 c 1.5,-17.34 2.2,-34.96 2.2,-52.33 0,-24.15 -1.4,-48.64 -4.2,-72.78 m -12195.32,-2.16 -22.81,0.23 c 0.41,41.12 1.2,82.6 2.32,123.3 l 22.81,-0.63 c -1.14,-40.56 -1.91,-81.92 -2.32,-122.9 m 12122.22,-235.77 -20.5,10.22 c 18.7,37.04 34,74.81 45.7,112.24 l 21.7,-6.79 c -12,-38.62 -27.8,-77.53 -46.9,-115.67 m -12143.28,-10.6 c -0.99,41.09 -1.63,82.58 -1.92,123.3 l 22.8,0.16 c 0.29,-40.59 0.93,-81.95 1.9,-122.92 l -22.78,-0.54 m 12003.18,-194.89 -17.2,15 c 27.3,31.27 52.5,63.63 74.9,96.18 l 18.7,-12.9 c -22.8,-33.27 -48.5,-66.34 -76.4,-98.28 M 4089.26,7068.73 c -2.29,41.04 -4.28,82.48 -5.9,123.17 l 22.78,0.91 c 1.62,-40.57 3.6,-81.89 5.88,-122.81 l -22.76,-1.27 m 11810.34,-117.62 -13,18.75 c 0.5,0.28 40.3,28.05 93.8,77.78 l 15.6,-16.7 c -54.8,-50.94 -94.7,-78.68 -96.4,-79.83 M 4104.64,6847.39 c -2.71,32.73 -5.27,65.79 -7.58,98.31 l 22.75,1.6 c 2.3,-32.38 4.84,-65.38 7.56,-97.96 l -22.73,-1.95" /></g><g
         transform="scale(1.59854)"
         id="g86"><path
           id="path88"
           style="fill:#f0f0f0;fill-opacity:1;fill-rule:nonzero;stroke:none"
           d="m 16004.5,8357.46 c -87.7,-185.31 -278.9,-288.37 -471.8,-272.82 -45.9,3.72 -92,14.16 -136.8,31.85 -9.9,3.91 -19.7,8.17 -29.5,12.78 -98,46.32 -172.9,121.56 -219.5,210.66 -67.3,128.61 -75.6,286.13 -8.7,427.41 22.1,46.64 50.7,88.05 84.2,123.7 138.6,147.18 361.3,195.63 553.9,104.51 239.2,-113.19 341.3,-398.87 228.2,-638.09 z m -159.9,782.65 c -256.8,121.53 -553.8,56.93 -738.6,-139.37 -44.8,-47.53 -83,-102.77 -112.4,-164.98 -89.1,-188.46 -78.1,-398.57 11.6,-570.08 62.2,-118.86 162.1,-219.21 292.8,-281 13,-6.15 26.1,-11.85 39.3,-17.05 59.7,-23.57 121.2,-37.51 182.5,-42.44 257.3,-20.78 512.3,116.7 629.2,363.85 151,319.08 14.8,700.1 -304.4,851.07" /></g><g
         transform="scale(1.49286)"
         id="g90"><path
           id="path92"
           style="fill:#2273b5;fill-opacity:1;fill-rule:nonzero;stroke:none"
           d="m 16219.1,8930.33 -151.7,-79.51 c -96,183.65 -107.8,408.63 -12.4,610.43 31.5,66.62 72.4,125.77 120.3,176.66 l 124.7,-117.47 c -35.9,-38.17 -66.5,-82.51 -90.2,-132.45 -71.6,-151.28 -62.7,-319.95 9.3,-457.66" /></g><g
         transform="scale(1.50987)"
         id="g94"><path
           id="path96"
           style="fill:#4dafff;fill-opacity:1;fill-rule:nonzero;stroke:none"
           d="m 16300,8593.14 -62,-157.61 c -14,5.51 -27.9,11.54 -41.7,18.06 -138.2,65.42 -244.1,171.66 -309.9,297.5 l 150,78.62 c 49.3,-94.34 128.7,-174 232.4,-223.04 10.3,-4.88 20.7,-9.39 31.2,-13.53" /></g><g
         transform="scale(1.52329)"
         id="g98"><path
           id="path100"
           style="fill:#4dafff;fill-opacity:1;fill-rule:nonzero;stroke:none"
           d="m 16286.5,8316.67 c -64.4,5.17 -128.9,19.8 -191.6,44.53 l 61.5,156.22 c 47,-18.57 95.4,-29.53 143.6,-33.42 l -13.5,-167.33" /></g><g
         transform="scale(1.50782)"
         id="g102"><path
           id="path104"
           style="fill:#4dafff;fill-opacity:1;fill-rule:nonzero;stroke:none"
           d="m 16300,7955.42 h -1265.3 v 25.14 h 1240.2 v 536.01 h 25.1 v -561.15" /></g><g
         transform="scale(1.45239)"
         id="g106"><path
           id="path108"
           style="fill:#e0e0e0;fill-opacity:1;fill-rule:nonzero;stroke:none"
           d="m 16300,8400.25 h -691.4 v 156.64 h 691.4 v -156.64" /></g><path
         id="path110"
         style="fill:#e0e0e0;fill-opacity:1;fill-rule:nonzero;stroke:none"
         d="M 3175.81,15747.3 H 2976.5 v -1321.7 h 199.31 v 1321.7" /><path
         id="path112"
         style="fill:#e0e0e0;fill-opacity:1;fill-rule:nonzero;stroke:none"
         d="m 3670.7,15478.7 h -199.3 v -1053.1 h 199.3 v 1053.1" /><path
         id="path114"
         style="fill:#e0e0e0;fill-opacity:1;fill-rule:nonzero;stroke:none"
         d="m 4165.59,15676.3 h -199.3 v -1250.7 h 199.3 v 1250.7" /><path
         id="path116"
         style="fill:#e0e0e0;fill-opacity:1;fill-rule:nonzero;stroke:none"
         d="m 4660.48,15286.2 h -199.31 v -860.6 h 199.31 v 860.6" /><path
         id="path118"
         style="fill:#e0e0e0;fill-opacity:1;fill-rule:nonzero;stroke:none"
         d="m 5155.36,15635.8 h -199.3 v -1210.2 h 199.3 v 1210.2" /><path
         id="path120"
         style="fill:#e0e0e0;fill-opacity:1;fill-rule:nonzero;stroke:none"
         d="m 5650.25,15818.2 h -199.3 v -1392.6 h 199.3 v 1392.6" /><path
         id="path122"
         style="fill:#e0e0e0;fill-opacity:1;fill-rule:nonzero;stroke:none"
         d="m 6145.15,15894.2 h -199.31 v -1468.6 h 199.31 v 1468.6" /><path
         id="path124"
         style="fill:#5d96ff;fill-opacity:1;fill-rule:nonzero;stroke:none"
         d="M 3175.81,15254.8 H 2976.5 v -829.2 h 199.31 v 829.2" /><path
         id="path126"
         style="fill:#5d96ff;fill-opacity:1;fill-rule:nonzero;stroke:none"
         d="m 3670.7,15086.3 h -199.3 v -660.7 h 199.3 v 660.7" /><path
         id="path128"
         style="fill:#5d96ff;fill-opacity:1;fill-rule:nonzero;stroke:none"
         d="m 4165.59,15210.3 h -199.3 v -784.7 h 199.3 v 784.7" /><path
         id="path130"
         style="fill:#5d96ff;fill-opacity:1;fill-rule:nonzero;stroke:none"
         d="m 4660.48,14965.5 h -199.31 v -539.9 h 199.31 v 539.9" /><path
         id="path132"
         style="fill:#5d96ff;fill-opacity:1;fill-rule:nonzero;stroke:none"
         d="m 5155.36,15184.8 h -199.3 v -759.2 h 199.3 v 759.2" /><path
         id="path134"
         style="fill:#5d96ff;fill-opacity:1;fill-rule:nonzero;stroke:none"
         d="m 5650.25,15299.3 h -199.3 v -873.7 h 199.3 v 873.7" /><path
         id="path136"
         style="fill:#5d96ff;fill-opacity:1;fill-rule:nonzero;stroke:none"
         d="m 6145.15,15347 h -199.31 v -921.4 h 199.31 v 921.4" /><g
         transform="scale(1.09259)"
         id="g138"><path
           id="path140"
           style="fill:#d9d9d9;fill-opacity:1;fill-rule:nonzero;stroke:none"
           d="M 6831.51,16147.7 H 5777.19 v 152.3 h 1054.32 v -152.3" /></g><g
         transform="scale(1.07373)"
         id="g142"><path
           id="path144"
           style="fill:#d9d9d9;fill-opacity:1;fill-rule:nonzero;stroke:none"
           d="m 7400.51,16145 h -1521.8 v 155 h 1521.8 v -155" /></g><g
         transform="scale(1.66618)"
         id="g146"><path
           id="path148"
           style="fill:#f0f0f0;fill-opacity:1;fill-rule:nonzero;stroke:none"
           d="m 15893.3,8897.22 c -140.4,-50.2 -291.7,-4.89 -382.9,102.3 -21.7,25.55 -40.1,54.62 -54,86.76 -3.1,7.09 -5.9,14.34 -8.6,21.72 -26.5,74.19 -26.4,151.41 -4.5,221.2 31.5,100.73 108.2,185.99 215.3,224.25 35.3,12.64 71.3,19.21 106.9,20.3 146.9,4.44 286.3,-85.17 338.5,-231.05 64.9,-181.23 -29.5,-380.66 -210.7,-445.48 z m 320.2,484.63 c -69.5,194.57 -255.5,314.08 -451.5,308.18 -47.4,-1.42 -95.5,-10.19 -142.6,-27.05 -142.8,-51.07 -245.1,-164.77 -287.2,-299.1 -29.1,-93.1 -29.3,-196.11 6.1,-295.05 3.5,-9.84 7.3,-19.53 11.4,-28.97 18.7,-42.86 43.1,-81.64 72.1,-115.71 121.6,-142.98 323.4,-203.41 510.7,-136.46 241.6,86.45 367.5,352.46 281,594.16" /></g><g
         transform="scale(1.61155)"
         id="g150"><path
           id="path152"
           style="fill:#1a598c;fill-opacity:1;fill-rule:nonzero;stroke:none"
           d="m 15966.8,9645.49 -114.8,35.86 c 43.5,138.89 149.3,256.45 297,309.24 48.7,17.41 98.4,26.51 147.4,28.01 l 3.6,-120.26 c -36.8,-1.12 -74,-7.92 -110.5,-20.99 -110.7,-39.56 -190,-127.71 -222.7,-231.86" /></g><g
         transform="scale(1.57995)"
         id="g154"><path
           id="path156"
           style="fill:#2273b5;fill-opacity:1;fill-rule:nonzero;stroke:none"
           d="m 16300,9582.2 -112.5,-48.95 c -4.3,9.96 -8.3,20.17 -12.1,30.55 -37.3,104.34 -37.1,212.97 -6.4,311.15 l 117.1,-36.57 c -23,-73.6 -23.1,-155.04 4.8,-233.27 2.8,-7.78 5.9,-15.43 9.1,-22.91" /></g><g
         transform="scale(1.58547)"
         id="g158"><path
           id="path160"
           style="fill:#4dafff;fill-opacity:1;fill-rule:nonzero;stroke:none"
           d="m 16206.8,9378.45 c -30.4,35.81 -56.1,76.56 -75.6,121.6 l 112,48.78 c 14.7,-33.77 34,-64.32 56.8,-91.17 l -93.2,-79.21" /></g><path
         id="path162"
         style="fill:#e8e8e8;fill-opacity:1;fill-rule:nonzero;stroke:none"
         d="m 16154.1,12829.9 h -6054.4 v 210.8 h 6054.4 v -210.8" /><path
         id="path164"
         style="fill:#e8e8e8;fill-opacity:1;fill-rule:nonzero;stroke:none"
         d="m 16154.1,12142.7 h -6054.4 v 210.9 h 6054.4 v -210.9" /><path
         id="path166"
         style="fill:#e8e8e8;fill-opacity:1;fill-rule:nonzero;stroke:none"
         d="m 16154.1,11479.8 h -6054.4 v 210.9 h 6054.4 v -210.9" /><path
         id="path168"
         style="fill:#e8e8e8;fill-opacity:1;fill-rule:nonzero;stroke:none"
         d="m 16154.1,10792.6 h -6054.4 v 210.9 h 6054.4 v -210.9" /><path
         id="path170"
         style="fill:#e8e8e8;fill-opacity:1;fill-rule:nonzero;stroke:none"
         d="m 10099.7,10020.7 h 6054.4 v 210.871 h -6054.4 z" /><path
         id="path172"
         style="fill:#e8e8e8;fill-opacity:1;fill-rule:nonzero;stroke:none"
         d="m 10099.7,9333.5 h 6054.4 v 210.898 h -6054.4 z" /><path
         id="path174"
         style="fill:#e8e8e8;fill-opacity:1;fill-rule:nonzero;stroke:none"
         d="m 10099.7,8670.6 h 6054.4 v 210.898 h -6054.4 z" /><path
         id="path176"
         style="fill:#e8e8e8;fill-opacity:1;fill-rule:nonzero;stroke:none"
         d="m 10099.7,7983.5 h 6054.4 v 210.801 h -6054.4 z" /><path
         id="path178"
         style="fill:#4ca1f4;fill-opacity:1;fill-rule:nonzero;stroke:none"
         d="m 8881.88,12362.4 h 518 c 94.19,0 170.56,76.4 170.56,170.6 v 518 c 0,94.2 -76.37,170.5 -170.56,170.5 h -518 c -94.2,0 -170.56,-76.3 -170.56,-170.5 v -518 c 0,-94.2 76.36,-170.6 170.56,-170.6" /><path
         id="path180"
         style="fill:#4ca1f4;fill-opacity:1;fill-rule:nonzero;stroke:none"
         d="m 8881.88,9669.4 h 518 c 94.19,0 170.56,76.3 170.56,170.5 v 518 c 0,94.2 -76.37,170.6 -170.56,170.6 h -518 c -94.2,0 -170.56,-76.4 -170.56,-170.6 v -518 c 0,-94.2 76.36,-170.5 170.56,-170.5" /><path
         id="path182"
         style="fill:#ffffff;fill-opacity:1;fill-rule:nonzero;stroke:none"
         d="m 9111.56,9891.3 -238.41,207.1 c -19.55,17 -21.62,46.7 -4.63,66.2 16.98,19.5 46.6,21.6 66.15,4.6 l 168.58,-146.4 239.63,268.1 c 17.26,19.3 46.9,21 66.21,3.7 19.31,-17.2 20.98,-46.9 3.72,-66.2 l -301.25,-337.1" /><path
         id="path184"
         style="fill:#4ca1f4;fill-opacity:1;fill-rule:nonzero;stroke:none"
         d="m 8881.88,11021.2 h 518 c 94.19,0 170.56,76.4 170.56,170.5 v 518.1 c 0,94.1 -76.37,170.5 -170.56,170.5 h -518 c -94.2,0 -170.56,-76.4 -170.56,-170.5 v -518.1 c 0,-94.1 76.36,-170.5 170.56,-170.5" /><path
         id="path186"
         style="fill:#ffffff;fill-opacity:1;fill-rule:nonzero;stroke:none"
         d="m 9111.56,11243.1 -238.41,207.2 c -19.55,16.9 -21.62,46.6 -4.63,66.1 16.98,19.6 46.6,21.6 66.15,4.7 l 168.58,-146.5 239.63,268.1 c 17.26,19.4 46.9,21 66.21,3.8 19.31,-17.3 20.98,-46.9 3.72,-66.3 l -301.25,-337.1" /><path
         id="path188"
         style="fill:#4ca1f4;fill-opacity:1;fill-rule:nonzero;stroke:none"
         d="m 8881.88,8317.6 h 518 c 94.19,0 170.56,76.3 170.56,170.5 v 518 c 0,94.2 -76.37,170.6 -170.56,170.6 h -518 c -94.2,0 -170.56,-76.4 -170.56,-170.6 v -518 c 0,-94.2 76.36,-170.5 170.56,-170.5" /><path
         id="path190"
         style="fill:#ffffff;fill-opacity:1;fill-rule:nonzero;stroke:none"
         d="m 9111.56,8539.5 -238.41,207.1 c -19.55,17 -21.62,46.6 -4.63,66.2 16.98,19.5 46.6,21.6 66.15,4.6 l 168.58,-146.5 239.63,268.2 c 17.26,19.3 46.9,21 66.21,3.7 19.31,-17.2 20.98,-46.9 3.72,-66.2 l -301.25,-337.1" /><path
         id="path192"
         style="fill:#ffffff;fill-opacity:1;fill-rule:nonzero;stroke:none"
         d="m 9042.78,12548.4 v 109 H 9138 v -109 z m -2.18,178 c 0,11.2 0.73,21.8 2.18,32 1.46,10.2 4.24,20 8.36,29.5 4.11,9.4 10.05,18.2 17.82,26.5 7.73,8.2 17.91,15.7 30.51,22.5 6.3,3.4 14.65,7.9 25.07,13.5 10.42,5.5 20.6,11.9 30.53,19.2 9.93,7.3 18.53,15.6 25.8,25.1 7.27,9.4 10.91,20 10.91,31.6 0,16 -5.81,28.5 -17.44,37.4 -11.63,9 -24.96,13.5 -39.97,13.5 -9.71,0 -18.31,-1.8 -25.81,-5.5 -7.52,-3.6 -14.29,-8 -20.35,-13.1 -6.07,-5 -11.27,-10.7 -15.62,-17 -4.37,-6.3 -8.25,-11.9 -11.64,-16.7 l -74.86,52.3 c 12.59,29.5 32.58,52.6 59.96,69 27.38,16.5 58.26,24.7 92.67,24.7 18.41,0 36.82,-2.6 55.24,-8 18.41,-5.3 34.88,-13.8 49.42,-25.4 14.54,-11.6 26.41,-26.6 35.61,-45.1 9.2,-18.4 13.81,-40.7 13.81,-66.8 0,-27.6 -5.7,-50.8 -17.08,-69.4 -11.39,-18.7 -28.23,-35 -50.51,-49.1 -10.18,-6.8 -20.47,-12.8 -30.88,-18.2 -10.43,-5.3 -19.99,-10.9 -28.71,-16.7 -8.74,-5.8 -15.76,-12.3 -21.08,-19.6 -5.34,-7.3 -8.01,-16 -8.01,-26.2 h -95.93" /><path
         id="path194"
         style="fill:#252840;fill-opacity:1;fill-rule:nonzero;stroke:none"
         d="m 11470.1,13394.3 c 0,0 -79.3,-69.5 -150.5,-176.3 -71.2,-106.8 -260.2,-112.5 -268.3,-258.3 -8.1,-145.8 257,-150.3 396.1,-102.8 139.2,47.4 160.2,189.8 244.4,225.4 84.1,35.6 127.8,64.5 121.4,134 -6.5,69.5 -53.1,182.3 -53.1,182.3 0,0 -52.3,-16.7 -83,-20.1 -30.8,-3.4 -134.2,-4.6 -207,15.8" /><g
         transform="scale(1.09016)"
         id="g196"><path
           id="path198"
           style="fill:#ffbf55;fill-opacity:1;fill-rule:nonzero;stroke:none"
           d="m 11396.5,15909.8 c 0,0 -48.9,-290.9 -88.4,-483.1 v 0 c -16,-78 -30.4,-139.7 -39.4,-159.1 -11.2,-24.4 -103.1,-123 -215.5,-238.8 -197.2,-203 -457.8,-458.7 -457.8,-458.7 l -101.8,193.4 c 0,0 231.4,271.3 388.3,452.4 72.6,83.8 129.3,148.2 139.7,157.5 32.7,29.3 70.8,318.5 124.3,556.7 53.5,238.2 160.8,369.9 160.8,369.9 l 89.8,-390.2" /></g><g
         transform="scale(1.01766)"
         id="g200"><path
           id="path202"
           style="fill:#eea886;fill-opacity:1;fill-rule:nonzero;stroke:none"
           d="m 11840.7,16099.6 c -211.2,-217.5 -490.4,-491.3 -490.4,-491.3 l -109.1,207.1 c 0,0 248,290.7 416,484.6 51.6,-25.3 146.1,-85.5 183.5,-200.4" /></g><path
         id="path204"
         style="fill:#252840;fill-opacity:1;fill-rule:nonzero;stroke:none"
         d="m 13428.6,13481.1 c 0,0 73,-80.7 116.2,-129.7 43.2,-48.9 208.6,-136.4 209.4,-281.8 1,-157.6 -122,-143.8 -231.4,-138 -109.4,5.7 -198.3,81.3 -244.3,170.6 -46.1,89.2 -168.7,112.7 -177.3,184.7 -8.6,71.9 56.8,201.5 56.8,201.5 l 270.6,-7.3" /><path
         id="path206"
         style="fill:#5f8cc9;fill-opacity:1;fill-rule:nonzero;stroke:none"
         d="m 13172.1,13622.6 -14.1,-134.2 c 0,0 228.4,-99.5 270.6,-7.3 l -9.8,119.5 -246.7,22" /><path
         id="path208"
         style="fill:#5f8cc9;fill-opacity:1;fill-rule:nonzero;stroke:none"
         d="m 11482.5,13491.4 -12.4,-97.1 c 0,0 138,-48.8 290,4.3 l 3.1,86.4 -280.7,6.4" /><g
         transform="scale(1.10125)"
         id="g210"><path
           id="path212"
           style="fill:#ffbf55;fill-opacity:1;fill-rule:nonzero;stroke:none"
           d="m 12205.7,14462.4 c 7.3,-25.6 -1327.2,0 -1327.2,0 0,0 369.1,268.7 393,340.5 24,71.8 -94,502.5 -109.3,642.6 -12.4,112.1 -43.2,613.8 30.7,690.4 77.2,80.1 355.5,164.1 355.5,164.1 l 405.6,-15.1 c 0,0 66.9,-14 114.8,-36.2 47.8,-22.2 321.5,-119.7 365.9,-256.4 44.4,-136.7 -273,-576.3 -273,-576.3 0,0 -0.7,-19.7 -1.6,-52.1 v 0 c -1.2,-43.2 -3.1,-108.8 -4.7,-180 -2.1,-92.1 -4,-193.6 -4,-267.8 0,-174.3 47.1,-428 54.3,-453.7" /></g><path
         id="path214"
         style="fill:#323657;fill-opacity:1;fill-rule:nonzero;stroke:none"
         d="m 13441.5,15926.7 c 0,0 199.9,-293.6 202.7,-494 2.9,-200.4 -74,-756.2 -79.7,-866.3 -5.6,-110.1 -109.1,-1027.6 -109.1,-1027.6 0,0 -80,-74.3 -320,18.8 0,0 -52.9,870.1 -58.6,963.3 -5.6,93.1 -5.6,522.2 -59.3,584.3 -53.6,62.1 -378.2,256.9 -420.6,293.6 -42.3,36.7 -780,-139.4 -857.3,-159.4 -200.1,-51.9 -108.9,-400.2 -64.6,-556.3 74,-261.2 138.8,-1204.5 138.8,-1204.5 0,0 -142.6,-60.8 -381.4,-9.4 0,0 -468.9,1703.2 -483.9,1872.6 -15.1,169.4 -22.5,448.7 1133.1,661 l 1359.9,-76.1" /><g
         transform="scale(1.16615)"
         id="g216"><path
           id="path218"
           style="fill:#eea886;fill-opacity:1;fill-rule:nonzero;stroke:none"
           d="m 11010.7,16225 c 0,0 -332.5,75 -256.5,-343.4 76,-418.5 155.9,-451.4 356.4,-364.8 200.7,86.6 182.7,354.7 192.8,486.2 10.1,131.4 -186.6,217.4 -292.7,222" /></g><g
         transform="scale(1.14033)"
         id="g220"><path
           id="path222"
           style="fill:#eea886;fill-opacity:1;fill-rule:nonzero;stroke:none"
           d="m 11170.1,15631.5 c 0,0 150.6,-159.6 388.6,-14.5 0,0 -53.2,346 -25.3,514.5 28.1,168.5 -310.4,-261.1 -310.4,-261.1 4.4,-2.4 7.4,-18.4 8.1,-41.3 0.5,-19.4 -0.5,-43.7 -3.6,-68.6 -7,-56 -24.4,-115.2 -57.4,-129" /></g><g
         transform="scale(1.14379)"
         id="g224"><path
           id="path226"
           style="fill:#eea886;fill-opacity:1;fill-rule:nonzero;stroke:none"
           d="m 11407.7,16248.6 c 4.5,37.6 78.9,51.4 84.9,-5 6,-56.5 -33.8,-155.5 -62.1,-145.8 -28.2,9.8 -28.9,98.9 -22.8,150.8" /></g><g
         transform="scale(1.17162)"
         id="g228"><path
           id="path230"
           style="fill:#3a3f47;fill-opacity:1;fill-rule:nonzero;stroke:none"
           d="m 11234.5,15714.6 c 0,0 -8.5,131.2 -56.5,135.3 -47.9,4.1 -55.2,-48.8 -55.2,-48.8 l -48.4,-9.1 c 0,0 15.3,115 -32.6,135.1 -47.9,20.1 -310.1,-63.3 -348.5,-29.6 -38.4,33.8 -20.3,267.1 49.2,299 69.4,32 261.3,103.5 401.9,8.3 0,0 109.6,12.5 125.8,-75.9 16.3,-88.4 -5.9,-348.6 -35.7,-414.3" /></g><g
         transform="scale(1.11839)"
         id="g232"><path
           id="path234"
           style="fill:#a77860;fill-opacity:1;fill-rule:nonzero;stroke:none"
           d="m 11447.7,16069.7 c 250.4,77.2 269.3,227.9 269.5,230.3 -82.4,-141.7 -265.8,-160.4 -265.8,-160.4 0.5,-19.8 -0.4,-44.5 -3.7,-69.9" /></g><g
         transform="scale(1.10644)"
         id="g236"><path
           id="path238"
           style="fill:#eea886;fill-opacity:1;fill-rule:nonzero;stroke:none"
           d="m 12016.3,16170.5 c 0,0 -185.3,-368.9 -484.8,-345.1 -299.3,23.8 -50.9,394.6 -37.4,398.1 15,3.7 307.1,76.5 522.2,-53" /></g><path
         id="path240"
         style="fill:#ffbf55;fill-opacity:1;fill-rule:nonzero;stroke:none"
         d="m 11811.7,15947.4 c 0,0 1015,-125.1 1629.8,-20.7 l -1174.9,146.8 c 0,0 -6.9,-30 -454.9,-126.1" /><path
         id="path242"
         style="fill:#eea886;fill-opacity:1;fill-rule:nonzero;stroke:none"
         d="m 12570.8,16119.7 -75.6,-38.3 c 0,0 17.2,-120.1 58.6,-156.5 l 84.9,21.7 c 0,0 -17.7,131.7 -67.9,173.1" /><g
         transform="scale(1.08324)"
         id="g244"><path
           id="path246"
           style="fill:#ffbf55;fill-opacity:1;fill-rule:nonzero;stroke:none"
           d="m 12689,15108.1 c -13.9,-16.1 -198.1,-90.2 -406.2,-170.4 v 0 c -284.3,-109.5 -604.9,-213.1 -604.9,-213.1 l -73,156.5 c 0,0 335.8,182.5 562.7,310.4 107.2,60.5 190,108.7 201.7,119.9 36.5,34.8 46,90.5 19.1,187.6 -26.7,97.2 -88.6,543.9 -95.5,596 -6.9,52.1 17.4,191.1 147.7,198.1 130.3,6.9 196.6,-29.9 196.6,-29.9 0,0 32.7,-13.6 57.1,-329.8 24.3,-316.2 27.8,-787.1 -5.3,-825.3" /></g><g
         transform="scale(1.06337)"
         id="g248"><path
           id="path250"
           style="fill:#b08439;fill-opacity:1;fill-rule:nonzero;stroke:none"
           d="m 12593.2,15911.1 v 0 c -1.3,-44.7 -3.2,-112.6 -4.8,-186.3 -129.6,317.5 -54.8,570.9 -53.5,575.2 -14,-86.2 57.3,-384.6 58.3,-388.9" /></g><g
         transform="scale(1.05297)"
         id="g252"><path
           id="path254"
           style="fill:#b08439;fill-opacity:1;fill-rule:nonzero;stroke:none"
           d="m 11707.5,15971.5 v 0 c -16.6,-80.7 -31.5,-144.5 -40.8,-164.7 -44.7,216.3 -4.5,493.2 -4.5,493.2 6.2,-132.3 45.3,-328.5 45.3,-328.5" /></g><g
         transform="scale(1.00957)"
         id="g256"><path
           id="path258"
           style="fill:#eea886;fill-opacity:1;fill-rule:nonzero;stroke:none"
           d="m 13179.1,16027.7 v 0 c -305.1,-117.5 -660.2,-232.3 -660.2,-232.3 l -67.3,171.5 c 0,0 360.4,195.8 603.9,333.1 0,0 88.5,-43.2 123.6,-272.3" /></g><path
         id="path260"
         style="fill:#5e5853;fill-opacity:1;fill-rule:nonzero;stroke:none"
         d="m 12548.9,15936.5 -1442.5,21.3 728.3,-369.9 z" /><path
         id="path262"
         style="fill:#91887f;fill-opacity:1;fill-rule:nonzero;stroke:none"
         d="m 11834.7,15587.9 714.2,276.7 v 71.9 l -770.6,-278 56.4,-70.6" /><path
         id="path264"
         style="fill:#eea886;fill-opacity:1;fill-rule:nonzero;stroke:none"
         d="m 12511.6,16078.8 c 0,0 -90.2,14 -152.4,28.5 -48.2,11.2 -168.1,-4.2 -198.6,-35.1 -30.5,-31 -127.6,-246.5 -146,-259.6 -18.3,-13.2 9.5,-43.6 41.7,-28.3 0,0 29.6,-94.3 102.7,-59 73,35.3 122.6,112.3 160.9,125.9 38.2,13.6 261,82.1 261,82.1 0,0 -11.9,168.5 -69.3,145.5" /><path
         id="path266"
         style="fill:#eea886;fill-opacity:1;fill-rule:nonzero;stroke:none"
         d="m 12182.6,16086.3 c 0,0 -57.9,-28 -73,-40.4 -15.1,-12.5 -76.3,-58.3 -91.2,-69.1 -14.8,-10.8 22.4,-41.5 131.9,5.9 109.5,47.5 32.3,103.6 32.3,103.6" /><g
         transform="scale(1.02819)"
         id="g268"><path
           id="path270"
           style="fill:#6e6760;fill-opacity:1;fill-rule:nonzero;stroke:none"
           d="m 11510.2,15160.6 -417.3,1139.4 -1345.27,-22 397.67,-1049.9 1364.9,-67.5" /></g><g
         transform="scale(1.00433)"
         id="g272"><path
           id="path274"
           style="fill:#807066;fill-opacity:1;fill-rule:nonzero;stroke:none"
           d="m 10915.8,16171.3 c 42.1,-84 29.4,-175.6 -28.3,-204.4 -57.7,-28.9 -138.6,15.8 -180.6,99.9 -42,84 -29.3,175.5 28.4,204.3 57.7,28.9 138.5,-15.8 180.5,-99.8" /></g><g
         transform="scale(1.05372)"
         id="g276"><path
           id="path278"
           style="fill:#e0e0e0;fill-opacity:1;fill-rule:nonzero;stroke:none"
           d="m 16267.4,10421.3 h -532.8 c -18.1,0 -32.7,14.6 -32.7,32.6 v 115 c 0,18 14.6,32.6 32.7,32.6 h 532.8 c 18,0 32.6,-14.6 32.6,-32.6 v -115 c 0,-18 -14.6,-32.6 -32.6,-32.6" /></g><g
         transform="scale(1.05372)"
         id="g280"><path
           id="path282"
           style="fill:#e0e0e0;fill-opacity:1;fill-rule:nonzero;stroke:none"
           d="m 16267.4,9989.11 h -532.8 c -18.1,0 -32.7,14.59 -32.7,32.59 v 115.1 c 0,18 14.6,32.5 32.7,32.5 h 532.8 c 18,0 32.6,-14.5 32.6,-32.5 v -115.1 c 0,-18 -14.6,-32.59 -32.6,-32.59" /></g><g
         transform="scale(1.05372)"
         id="g284"><path
           id="path286"
           style="fill:#e0e0e0;fill-opacity:1;fill-rule:nonzero;stroke:none"
           d="m 16267.4,9556.93 h -532.8 c -18.1,0 -32.7,14.59 -32.7,32.58 v 115.08 c 0,17.99 14.6,32.57 32.7,32.57 h 532.8 c 18,0 32.6,-14.58 32.6,-32.57 v -115.08 c 0,-17.99 -14.6,-32.58 -32.6,-32.58" /></g><g
         transform="scale(1.05372)"
         id="g288"><path
           id="path290"
           style="fill:#e0e0e0;fill-opacity:1;fill-rule:nonzero;stroke:none"
           d="m 16267.4,9124.74 h -532.8 c -18.1,0 -32.7,14.61 -32.7,32.65 v 115.02 c 0,18.03 14.6,32.55 32.7,32.55 h 532.8 c 18,0 32.6,-14.52 32.6,-32.55 v -115.02 c 0,-18.04 -14.6,-32.65 -32.6,-32.65" /></g><g
         transform="scale(1.05372)"
         id="g292"><path
           id="path294"
           style="fill:#e0e0e0;fill-opacity:1;fill-rule:nonzero;stroke:none"
           d="m 16267.4,8692.55 h -532.8 c -18.1,0 -32.7,14.62 -32.7,32.65 v 115.02 c 0,18.04 14.6,32.65 32.7,32.65 h 532.8 c 18,0 32.6,-14.61 32.6,-32.65 V 8725.2 c 0,-18.03 -14.6,-32.65 -32.6,-32.65" /></g><g
         transform="scale(1.05372)"
         id="g296"><path
           id="path298"
           style="fill:#e0e0e0;fill-opacity:1;fill-rule:nonzero;stroke:none"
           d="m 16267.4,8260.46 h -532.8 c -18.1,0 -32.7,14.53 -32.7,32.56 v 115.02 c 0,18.03 14.6,32.65 32.7,32.65 h 532.8 c 18,0 32.6,-14.62 32.6,-32.65 v -115.02 c 0,-18.03 -14.6,-32.56 -32.6,-32.56" /></g><g
         transform="scale(1.08068)"
         id="g300"><path
           id="path302"
           style="fill:#e0e0e0;fill-opacity:1;fill-rule:nonzero;stroke:none"
           d="m 16268.3,10161.3 h -102.5 c -17.5,0 -31.7,14.2 -31.7,31.7 v 112.2 c 0,17.6 14.2,31.8 31.7,31.8 h 102.5 c 17.4,0 31.7,-14.2 31.7,-31.8 V 10193 c 0,-17.5 -14.3,-31.7 -31.7,-31.7" /></g><g
         transform="scale(1.08068)"
         id="g304"><path
           id="path306"
           style="fill:#e0e0e0;fill-opacity:1;fill-rule:nonzero;stroke:none"
           d="m 16268.3,9739.88 h -102.5 c -17.5,0 -31.7,14.22 -31.7,31.76 v 112.21 c 0,17.54 14.2,31.77 31.7,31.77 h 102.5 c 17.4,0 31.7,-14.23 31.7,-31.77 v -112.21 c 0,-17.54 -14.3,-31.76 -31.7,-31.76" /></g><g
         transform="scale(1.08068)"
         id="g308"><path
           id="path310"
           style="fill:#e0e0e0;fill-opacity:1;fill-rule:nonzero;stroke:none"
           d="m 16268.3,9318.49 h -102.5 c -17.5,0 -31.7,14.22 -31.7,31.76 v 112.21 c 0,17.54 14.2,31.76 31.7,31.76 h 102.5 c 17.4,0 31.7,-14.22 31.7,-31.76 v -112.21 c 0,-17.54 -14.3,-31.76 -31.7,-31.76" /></g><g
         transform="scale(1.08068)"
         id="g312"><path
           id="path314"
           style="fill:#e0e0e0;fill-opacity:1;fill-rule:nonzero;stroke:none"
           d="m 16268.3,8897.08 h -102.5 c -17.5,0 -31.7,14.25 -31.7,31.83 v 112.15 c 0,17.58 14.2,31.74 31.7,31.74 h 102.5 c 17.4,0 31.7,-14.16 31.7,-31.74 v -112.15 c 0,-17.58 -14.3,-31.83 -31.7,-31.83" /></g><g
         transform="scale(1.08068)"
         id="g316"><path
           id="path318"
           style="fill:#e0e0e0;fill-opacity:1;fill-rule:nonzero;stroke:none"
           d="m 16268.3,8475.67 h -102.5 c -17.5,0 -31.7,14.26 -31.7,31.84 v 112.15 c 0,17.58 14.2,31.83 31.7,31.83 h 102.5 c 17.4,0 31.7,-14.25 31.7,-31.83 v -112.15 c 0,-17.58 -14.3,-31.84 -31.7,-31.84" /></g><g
         transform="scale(1.08068)"
         id="g320"><path
           id="path322"
           style="fill:#e0e0e0;fill-opacity:1;fill-rule:nonzero;stroke:none"
           d="m 16268.3,8054.36 h -102.5 c -17.5,0 -31.7,14.16 -31.7,31.74 v 112.16 c 0,17.58 14.2,31.83 31.7,31.83 h 102.5 c 17.4,0 31.7,-14.25 31.7,-31.83 V 8086.1 c 0,-17.58 -14.3,-31.74 -31.7,-31.74" /></g><g
         transform="scale(1.10451)"
         id="g324"><path
           id="path326"
           style="fill:#6f5be0;fill-opacity:1;fill-rule:nonzero;stroke:none"
           d="m 15835.3,7850.45 c 0,0 -243.8,552.47 39,506.66 0,0 96.3,-79.59 195.2,-241.74 74.9,-122.86 230.5,-447.98 224.7,-557.99 -5.8,-109.91 -84,-191.94 -168.4,-368.49 0,0 -175.6,-327.74 -183,-367.31 l -185.6,96.42 c 0,0 157.3,313.36 268.1,588.87 l -190,343.58" /></g><g
         id="g328"><g
           clip-path="url(#clipPath334)"
           id="g330"><g
             transform="scale(1.13601)"
             id="g336"><path
               id="path344"
               style="fill:url(#linearGradient342);fill-opacity:1;fill-rule:nonzero;stroke:none"
               d="m 16217.7,6280.57 -3159.5,541.19 82.3,483.27 3159.5,-541.19 -82.3,-483.27" /></g></g></g><path
         id="path346"
         style="fill:#2d3038;fill-opacity:1;fill-rule:nonzero;stroke:none"
         d="m 14845.6,7815.7 -172.5,29.4 71,416.7 172.5,-29.3 -71,-416.8" /><path
         id="path348"
         style="fill:#eea886;fill-opacity:1;fill-rule:nonzero;stroke:none"
         d="m 15931.3,3501.9 h -50.9 c 0,0 17,191.9 -30.1,193.8 -47,1.9 -163.6,-156.2 -233.3,-180.7 -69.6,-24.4 -427.1,-45.1 -428.9,20.8 -1.9,65.8 137.3,92.2 180.6,110.9 43.2,18.9 254,224 291.6,248.4 37.6,24.5 101.9,194.5 101.9,194.5 l 199.5,8.9 c 0,0 11.3,-158.9 23.4,-243.1 4.5,-31.1 7.8,-59.5 8.2,-78.8 1.9,-71.5 -62,-274.7 -62,-274.7" /><g
         transform="scale(1.06084)"
         id="g350"><path
           id="path352"
           style="fill:#eea886;fill-opacity:1;fill-rule:nonzero;stroke:none"
           d="m 16229.5,3336.79 h -40 v 168.45 c -33.2,-2.83 -145,-108.59 -179.6,-139.23 -34.5,-30.54 -82,-29.22 -227.6,-38.46 -145.7,-9.24 -159.4,77.96 -136.4,107.65 23.1,29.69 97.6,42.61 136.4,61.18 38.7,18.57 191.7,191.07 232.5,231.89 40.9,40.81 65.7,157.71 65.7,157.71 l 170.3,-14.81 c 0,0 -1.1,-106.99 18.3,-196.63 v -0.1 l 0.2,-0.65 c 1.6,-7.64 3.4,-15.18 5.3,-22.44 25.4,-93.23 -45.1,-314.56 -45.1,-314.56" /></g><g
         transform="scale(1.06964)"
         id="g354"><path
           id="path356"
           style="fill:#292c47;fill-opacity:1;fill-rule:nonzero;stroke:none"
           d="m 15471.6,7094.83 c 0,0 -63.9,-150.89 -69.5,-189.04 -5.6,-38.14 -155,-399.29 -198.2,-642.74 -25.9,-145.75 -97.3,-602.07 -103.1,-660.03 -9.9,-99.29 -56.6,-318.43 -63.8,-419.86 -4.1,-56.66 -283.2,-926.86 -350.8,-1381.13 0,0 160.5,-23.84 281.2,8.05 0,0 245,469.59 381.2,1135.52 81.9,401.16 154.5,615.07 218,780.26 63.5,165.2 423.1,633.02 460.7,685.56 37.5,52.63 272.7,343.11 50,657.79 -222.8,314.69 -605.7,25.62 -605.7,25.62" /></g><g
         transform="scale(1.08208)"
         id="g358"><path
           id="path360"
           style="fill:#292c47;fill-opacity:1;fill-rule:nonzero;stroke:none"
           d="m 16088.6,5691.91 c -20.2,-133.91 1,-309.87 43,-799.57 42.2,-489.71 -73.6,-1082.64 -73.6,-1082.64 -145.3,-49.72 -312.8,0 -312.8,0 3.9,34.47 0,1193.63 0,1296.85 0,103.32 -29.6,220.6 -37.2,339.08 -5.3,80.86 -42.9,229.83 -85.1,381.85 -12.7,45.56 -25.8,91.31 -38.6,135.67 v 0.09 c -7.1,24.86 -14.1,49.35 -20.9,72.91 -59.6,206.64 -139.7,1004.27 -139.7,1004.27 0,0 444,357.65 660.1,20.98 216.2,-336.67 105.2,-581.47 97.5,-623.52 -7.5,-42.14 -72.6,-612.15 -92.7,-745.97" /></g><g
         transform="scale(1.05582)"
         id="g362"><path
           id="path364"
           style="fill:#191b2b;fill-opacity:1;fill-rule:nonzero;stroke:none"
           d="m 16300,6570.71 c -3.5,-7.77 -230.2,-511.07 -288.6,-598.3 -13,46.69 -26.4,93.57 -39.5,139.04 v 0.09 c 0,0 320.5,448.18 328.1,459.17" /></g><g
         transform="scale(1.06084)"
         id="g366"><path
           id="path368"
           style="fill:#c6c9cc;fill-opacity:1;fill-rule:nonzero;stroke:none"
           d="m 16229.5,3336.79 h -40 v 168.45 c -33.2,-2.83 -145,-108.59 -179.6,-139.23 -34.5,-30.54 -82,-29.22 -227.6,-38.46 -145.7,-9.24 -159.4,77.96 -136.4,107.65 23.1,29.69 97.6,42.61 136.4,61.18 155.8,-8.3 345.9,210.77 437.2,210.3 48.5,-0.28 48.1,-27.15 49.6,-32.14 v -0.1 l 0.2,-0.65 c 1.6,-7.64 3.4,-15.18 5.3,-22.44 25.4,-93.23 -45.1,-314.56 -45.1,-314.56" /></g><path
         id="path370"
         style="fill:#c6c9cc;fill-opacity:1;fill-rule:nonzero;stroke:none"
         d="m 15931.3,3501.9 h -50.9 c 0,0 17,191.9 -30.1,193.8 -47,1.9 -163.6,-156.2 -233.3,-180.7 -69.6,-24.4 -427.1,-45.1 -428.9,20.8 -1.9,65.8 137.3,92.2 180.6,110.9 147.4,0.4 387.2,162.7 461.6,195.6 74.3,32.9 154.8,13.1 154.8,13.1 4.5,-31.1 7.8,-59.5 8.2,-78.8 1.9,-71.5 -62,-274.7 -62,-274.7" /><g
         transform="scale(1.06429)"
         id="g372"><path
           id="path374"
           style="fill:#eea886;fill-opacity:1;fill-rule:nonzero;stroke:none"
           d="m 15947.9,9034.39 c 0,0 72,-190.64 16,-337.87 0,0 264.1,17.19 274.1,48.01 10,30.82 -10.6,316.36 25.7,400.73 36.3,84.38 -315.8,-110.87 -315.8,-110.87" /></g><g
         transform="scale(1.08493)"
         id="g376"><path
           id="path378"
           style="fill:#6f5be0;fill-opacity:1;fill-rule:nonzero;stroke:none"
           d="m 15619.4,8594.27 c 0,0 -153.1,-54.47 -222.2,-69.59 -69.2,-15.12 -213.9,-83.69 -202.2,-341.77 11.8,-258.08 55,-481.97 70.7,-592.85 15.6,-110.89 5.9,-393.2 -19.7,-530.36 0,0 367,-92.72 798.8,0 0,0 -76.5,233.94 -74.6,294.4 2,60.55 255.1,558.56 266.9,637.27 11.8,78.63 62.9,425.47 -53,502.06 -115.7,76.6 -209.9,66.55 -259,100.84 -49.1,34.29 -234.1,24.61 -305.7,0" /></g><g
         transform="scale(1.08683)"
         id="g380"><path
           id="path382"
           style="fill:#6f5be0;fill-opacity:1;fill-rule:nonzero;stroke:none"
           d="m 16181.8,6642.5 c -626,-166.08 -1124.1,-0.64 -1124.1,-0.64 45.4,93.3 78.8,186.5 103,276.67 v 0.09 c 17.1,63.68 29.7,125.87 38.6,185.68 v 0 c 50.9,341.08 -15.5,602.21 -15.5,602.21 72.2,594.57 972,772.06 1044.2,583.62 72,-188.53 -139.7,-998.59 -150.5,-1068.06 -10.7,-69.46 104.3,-579.57 104.3,-579.57" /></g><g
         transform="scale(1.07611)"
         id="g384"><path
           id="path386"
           style="fill:#eea886;fill-opacity:1;fill-rule:nonzero;stroke:none"
           d="m 16000.3,9691.25 c -105,36.02 -388.8,74.37 -461.5,-361.3 -72.7,-435.7 85.7,-443.13 248.3,-430.77 162.8,12.36 417.3,306.47 436.7,395.87 19.5,89.38 76.2,293.43 -223.5,396.2" /></g><g
         transform="scale(1.08487)"
         id="g388"><path
           id="path390"
           style="fill:#0f324f;fill-opacity:1;fill-rule:nonzero;stroke:none"
           d="m 15471.3,9447.03 c 0,0 86,-183.99 198.9,-248.15 0,0 70.7,-195.41 223.7,-274.5 0,0 406.1,269.06 170.4,588.7 -235.6,319.69 -566.3,65.11 -593,-66.05" /></g><g
         transform="scale(1.05058)"
         id="g392"><path
           id="path394"
           style="fill:#eea886;fill-opacity:1;fill-rule:nonzero;stroke:none"
           d="m 16171.4,9565.08 c 9.4,23.21 72.3,60.97 100.4,-2.72 28.2,-63.67 -73,-175.9 -100.7,-169.9 -27.7,6.1 -35.5,84.53 0.3,172.62" /></g><g
         transform="scale(1.09421)"
         id="g396"><path
           id="path398"
           style="fill:#0f324f;fill-opacity:1;fill-rule:nonzero;stroke:none"
           d="m 15913.6,9382.92 c 8.8,13.74 275.5,137.17 330.9,-120.75 55.5,-257.95 -214.7,-557.8 -262.1,-686.75 -47.3,-129.04 21.4,-431.27 21.4,-431.27 0,0 -162.6,153.72 -211.7,314.57 -54.1,176.65 -72.2,622.09 121.5,924.2" /></g><g
         transform="scale(1.06917)"
         id="g400"><path
           id="path402"
           style="fill:#e54242;fill-opacity:1;fill-rule:nonzero;stroke:none"
           d="m 16300,9611.66 c 0,0 -83.5,-66.09 -94.3,-170.36 0,0 -15.7,81.33 18,131.04 33.7,49.7 76.3,39.32 76.3,39.32" /></g><g
         transform="scale(1.03227)"
         id="g404"><path
           id="path406"
           style="fill:#1d3b54;fill-opacity:1;fill-rule:nonzero;stroke:none"
           d="m 15962.1,7284.33 c 18,67.04 41.5,213.9 50.9,276.87 0,0 39.7,29.55 47.8,55.22 14.2,44.27 123.7,586.86 123.7,586.86 0,0 115.5,-509.75 -222.4,-918.95" /></g><path
         id="path408"
         style="fill:#eea886;fill-opacity:1;fill-rule:nonzero;stroke:none"
         d="m 15987.7,7655.5 c 0,0 -121.6,-56.5 -150,-65.2 -28.3,-8.8 -83,39.5 -284.4,54.4 -17.7,1.4 -48.8,-14.6 -41.5,-37.9 7.3,-23.4 95,-87 132.5,-96.7 37.5,-9.7 214.6,-80 300.8,-45.5 86.3,34.5 145,144.3 145,144.3 l -102.4,46.6" /><g
         transform="scale(1.0355)"
         id="g410"><path
           id="path412"
           style="fill:#6f5be0;fill-opacity:1;fill-rule:nonzero;stroke:none"
           d="m 16086.9,8916.88 c 0,0 -225,-89.24 -238.4,-401.94 -13.3,-312.6 -25.5,-475.9 -37.7,-524.09 -12.2,-48.29 -35.6,-242.3 -92.2,-359.06 -54.9,-113.18 -416.8,-292.22 -416.8,-292.22 l 110.1,-140.03 c 0,0 568.3,300.92 598.9,393.14 30.5,92.13 156.1,733.85 166.2,842.01 8,87.21 123,475.72 -90.1,482.19" /></g><path
         id="path414"
         style="fill:#3f444f;fill-opacity:1;fill-rule:nonzero;stroke:none"
         d="m 11195.2,7858.6 -7.8,19.7 c -5.7,14.7 -11.1,29.3 -16.5,44.3 l -12.2,35.9 c -3,8.9 -6,17.9 -8.7,26.9 l -0.6,1.8 c -0.6,1.8 -1.2,3.2 -1.5,5 -4.8,15 -9,30.2 -13.1,45.5 l -4.8,17.6 c -4.5,16.2 -8.4,32.6 -12.3,49.1 -0.3,1.5 -0.9,3.3 -1.2,5.1 -3.3,15.2 -6.6,30.5 -9.6,45.7 -1.5,6.3 -2.6,12.6 -3.8,18.9 -3.6,19.1 -6.9,38.5 -9.9,58 -5.4,34 -9.3,68.4 -12.6,103.1 -1.2,11.7 -2.1,23.7 -3,35.6 v 0.3 c 0,3.9 -0.3,7.5 -0.6,11.4 -0.9,16.1 -1.8,32.3 -2.4,48.4 v 4.8 c -0.3,3.6 -0.3,7.5 -0.3,11.4 -0.2,14 -0.5,28.1 -0.5,42.1 0,13.2 0,26.3 0.5,39.2 0.9,52.6 4.5,104.3 10.8,155.5 0.3,5.3 0.9,10.7 1.8,16.1 l 0.3,0.9 v 0.3 0.9 c 0,1.2 0,2.4 0.3,3.3 v 0.6 l 0.3,1.2 c 32.3,252.7 120.5,487.7 251.5,692.8 153.1,239.5 364.8,438.1 614.8,575 66,36.5 134.8,68.5 205.7,95.7 22.4,8.7 45.4,17 68.5,24.5 128.2,43.4 263.7,71.5 403.9,82.2 44.9,3.9 90,5.7 135.8,5.7 13.7,0 27.2,0 40.9,-0.6 15.9,-0.3 31.4,-0.9 47.3,-1.5 11.3,-0.6 22.7,-1.5 34.1,-2.3 3.3,0 6.2,-0.4 9.2,-0.7 18.9,-1.1 38,-2.9 56.8,-5 4.8,-0.6 9.6,-1.2 14.4,-1.8 7.5,-0.9 15.2,-1.8 22.7,-3 8.7,-0.9 17.1,-2.1 25.7,-3.6 19.2,-2.7 38,-6 56.8,-9.3 1.8,-0.3 3.6,-0.6 5.1,-0.9 14.7,-2.7 29.3,-5.7 44,-9 0.9,-0.2 1.8,-0.2 2.7,-0.5 6,-1.2 12.2,-2.7 18.2,-4.2 13.8,-3 27.2,-6.3 40.7,-9.9 6,-1.2 11.9,-2.7 17.6,-4.5 15.6,-4.2 31.1,-8.4 46.7,-13.1 14.9,-4.2 29.6,-9 44.2,-13.8 6.9,-2.1 13.8,-4.5 20.4,-6.9 29.3,-9.8 58.3,-20.6 86.7,-32.3 7.8,-3 15.5,-6.3 23.3,-9.5 12,-5.1 23.6,-10.2 35.6,-15.6 9.5,-4.2 19.1,-8.4 28.4,-13.1 14,-6.3 27.8,-13.2 41.5,-20.1 15.6,-7.8 30.8,-15.8 45.8,-24.2 17.3,-9.3 34.1,-18.8 50.8,-28.7 34.7,-20.3 68.2,-41.9 101.1,-64.6 14.1,-9.6 27.8,-19.4 41.6,-29.9 17.3,-12.3 34,-25.1 50.5,-38.3 14.7,-11.6 29.3,-23.6 43.6,-35.8 15,-12.6 29.4,-25.2 43.7,-38.3 340.3,-309.8 553.8,-756.5 553.8,-1252.9 0,-11.6 0,-23.3 -0.3,-35 -0.3,-19.1 -0.9,-38 -2.1,-57.1 -0.3,-8.7 -0.9,-17.3 -1.5,-26 -1.5,-19.1 -3,-38 -5.1,-56.8 -5.4,-53.8 -13.4,-106.8 -23.9,-159.1 -11.4,-57.1 -25.7,-113.3 -42.8,-168 -13.4,-43.7 -28.7,-86.8 -45.7,-128.6 -113.6,-283.8 -302,-529.6 -540.9,-713.2 -56.8,-43.6 -116.3,-83.7 -178.3,-119.9 -243.9,-142.6 -526.8,-226 -829.1,-230.2 -8.1,-0.3 -16.2,-0.3 -24.2,-0.3 -311.3,0 -603.2,84 -853.7,230.5 -271.5,158.5 -494.9,390.5 -642.9,668.9 -7.5,14.4 -14.9,28.7 -22.1,43.1 l -13.2,27.5 c -5.4,10.8 -10.2,21.5 -15.2,32.6 l -4.8,10.8 c -4.2,9.5 -8.4,19.1 -12.3,29 l -8.6,21.2 m -454.3,630.6 c 0,-10.2 0,-20 0.4,-30.2 0.5,-42.1 2.3,-84 5.9,-125.6 8.7,-118.4 27.8,-234.1 56.5,-346.2 91.2,-358.8 278.4,-679.4 532.6,-932.4 9.8,-10.1 19.7,-19.7 29.6,-29.3 39.8,-38.2 81.3,-75 124.4,-109.7 348.6,-283.8 793.3,-453.6 1277.7,-453.6 8,0 16.1,0 24.2,0.3 367.5,4.2 711.6,106.4 1007.4,281.7 134.2,79.5 258.3,174 370.4,281.3 233.6,224 413.9,503.3 519.4,816.9 15.9,47.6 30.2,95.7 42.8,144.8 22.1,87.3 38.9,177 49.3,268.2 v 0.3 c 2.1,19.4 4.2,38.9 5.7,58.6 1.8,18.8 3.3,37.7 4.2,56.8 0.6,8.7 0.9,17.3 1.2,26 0.9,19.1 1.5,38 1.8,57.1 0.3,11.7 0.3,23.4 0.3,35 0,1014.6 -745.5,1855.1 -1718.8,2003.4 -18.8,3 -37.6,5.7 -56.8,8.1 -20.9,2.4 -41.8,4.8 -62.8,6.6 -18.8,1.8 -37.9,3.2 -56.8,4.4 -43.6,3 -87.6,4.2 -131.5,4.2 -37.4,0 -74.5,-0.9 -111.3,-3 -63.1,-3.2 -125.3,-9.8 -186.9,-18.8 -587.5,-86.4 -1093.1,-425.2 -1402.9,-902.7 -61.9,-95.1 -116.1,-195.9 -161.5,-301.4 -3,-6.6 -5.7,-13.5 -8.4,-20.1 -3,-6.3 -5.4,-12.8 -7.7,-19.1 -15.6,-37.4 -29.6,-75.4 -42.5,-113.6 -33.5,-99.3 -59.5,-202.2 -77.2,-307.7 -5,-27.8 -8.9,-55.9 -12.8,-84.3 -0.3,-4.8 -0.9,-9.6 -1.5,-14.7 l -0.3,-1.2 c -0.3,-2.4 -0.6,-4.8 -0.6,-7.2 -0.6,-2.6 -0.9,-5.3 -1.2,-8.3 v -2.1 c -0.3,-1.2 -0.6,-2.7 -0.6,-4.2 -0.3,-2.1 -0.6,-4.2 -0.6,-6.3 -0.6,-5.1 -1.2,-10.2 -1.5,-15.2 -3,-31.1 -5.4,-62.5 -6.9,-93.9 -0.3,-4.2 -0.6,-8.7 -0.6,-12.9 -0.3,-6.9 -0.6,-13.7 -0.9,-20.6 -0.8,-23 -1.2,-46.1 -1.2,-69.4 m 3718.6,-92.1 c -0.3,-8.7 -0.9,-17.3 -1.5,-26 h 333.4 c 0.6,8.7 0.9,17.3 1.2,26 h -333.1" /><path
         id="path416"
         style="fill:#f8f8f8;fill-opacity:1;fill-rule:nonzero;stroke:none"
         d="m 12767.9,6801.1 c -648.8,0 -1212.1,365.9 -1494.7,902.8 18.7,97.8 40.5,190.8 65.3,279.6 h 3040.4 C 14164,7298.2 13524,6801.1 12767.9,6801.1 m 1662.4,1393.2 h -3025.1 c 63.7,178.2 139.7,336.2 225,476.3 h 2816.1 c 6.4,-59.6 9.7,-120.1 9.7,-181.5 0,-100.5 -8.8,-199.1 -25.7,-294.8 m -20.2,687.2 h -2634.8 c 145.8,187.9 309.6,335.7 480,452 h 1974.6 c 80.7,-139.3 141.9,-291.2 180.2,-452 m -324.5,662.9 h -1442.9 c 414.7,176.1 818,207.6 1053.9,207.6 104.3,0 175.9,-6.1 201.2,-8.7 67.8,-61.1 130.6,-127.6 187.8,-198.9" /><path
         id="path418"
         style="fill:#e3e3e3;fill-opacity:1;fill-rule:nonzero;stroke:none"
         d="m 14229.9,9333.5 h -1974.6 c 127,86.7 257.8,155.9 387.4,210.9 h 1442.9 c 53.2,-66.4 101.5,-136.9 144.3,-210.9" /><path
         id="path420"
         style="fill:#e3e3e3;fill-opacity:1;fill-rule:nonzero;stroke:none"
         d="m 14446.3,8670.6 h -2816.1 c 45.8,75.4 94.4,145.6 145.1,210.9 h 2634.8 c 16.4,-68.7 28.6,-139.2 36.2,-210.9" /><path
         id="path422"
         style="fill:#e3e3e3;fill-opacity:1;fill-rule:nonzero;stroke:none"
         d="m 14378.9,7983.5 h -3040.4 c 20.3,73.1 42.7,143.5 66.7,210.8 h 3025.1 c -12.7,-72 -29.9,-142.3 -51.4,-210.8" /><path
         id="path424"
         style="fill:#dae1ed;fill-opacity:1;fill-rule:nonzero;stroke:none"
         d="m 11271.4,7694.4 v 0 c -7.3,14.1 -14.7,28.2 -21.7,42.3 -0.2,0.4 -0.4,0.7 -0.6,1.1 l -13,27.2 c -2.2,4.4 -4.3,8.8 -6.3,13.2 -8.4,18.1 -16.5,36.3 -24.2,54.8 -0.6,1.4 -1.2,2.9 -1.8,4.4 l -8.6,21.2 -7.8,19.7 c -5.7,14.7 -11.1,29.3 -16.5,44.3 l -12.2,35.9 c -1.4,4.1 -2.8,8.2 -4.1,12.3 -1.4,4.2 -2.7,8.4 -4,12.5 0,0.1 0,0.1 0,0.2 h 6.3 c 30.5,-97.3 69.6,-190.8 116.3,-279.6 -0.6,-3.1 -1.2,-6.4 -1.8,-9.5 m -165.9,499.9 h -6.1 c -1.6,9.4 -3.2,18.7 -4.7,28.1 -11,69.8 -17.8,141 -20.1,213.3 v 0 0 c -0.1,3.6 -0.2,7.2 -0.3,10.8 0,0.2 0,0.4 0,0.6 -0.1,6.2 -0.2,12.5 -0.3,18.8 -0.1,7.7 -0.2,15.5 -0.2,23.2 0,11.8 0.1,23.5 0.4,35.2 0,1.4 0.1,2.7 0.1,4.1 0.1,5.2 0.2,10.4 0.4,15.6 1.1,36 3.4,71.7 6.8,107 0.6,6.6 1.3,13.1 2,19.6 h 6 c -6.4,-59.6 -9.7,-120.1 -9.7,-181.5 0,-100.5 8.8,-199.1 25.7,-294.8 m 20.2,687.2 h -6.2 c 0.4,1.9 0.9,3.8 1.3,5.7 24.2,100.3 57.3,197.2 98.4,289.6 0.1,0.1 0.1,0.1 0.1,0.2 0.3,0.6 0.6,1.4 0.9,2 0.1,0.3 0.2,0.6 0.4,0.8 0.2,0.5 0.4,1.1 0.7,1.6 0.2,0.5 0.5,1.1 0.7,1.7 0.1,0.1 0.2,0.4 0.3,0.6 23.1,51.3 48.7,101.3 76.6,149.8 h 7 c -80.7,-139.3 -141.9,-291.2 -180.2,-452 m 324.5,662.9 h -7.6 c 139.8,175.3 313.6,322.2 511.5,430.6 29.1,16.1 58.8,31.4 89,45.7 h 14 c -237.4,-110.4 -444.9,-274.3 -606.9,-476.3 m 2457.8,197.8 c 0,0 -3.5,0.4 -10.2,1.1 -124.3,112.1 -265.5,206 -419.1,277.4 h 13.6 c 13.1,-5.9 25.9,-12.4 38.7,-18.8 15.6,-7.8 30.8,-15.8 45.8,-24.2 17.3,-9.3 34.1,-18.8 50.8,-28.7 34.7,-20.3 68.2,-41.9 101.1,-64.6 14.1,-9.6 27.8,-19.4 41.6,-29.9 17.3,-12.3 34,-25.1 50.5,-38.3 14.7,-11.6 29.3,-23.6 43.6,-35.8 5.3,-4.5 10.5,-8.9 15.6,-13.3 9.4,-8.2 18.7,-16.5 28,-24.9" /><path
         id="path426"
         style="fill:#cad0dd;fill-opacity:1;fill-rule:nonzero;stroke:none"
         d="m 13492.3,10020.7 h -13.6 c -216,100.4 -456.8,156.5 -710.8,156.5 -254,0 -494.8,-56.1 -710.8,-156.5 h -14 c 38.2,18.1 77.1,34.8 116.7,50 22.4,8.7 45.4,17 68.5,24.5 128.2,43.4 263.7,71.5 403.9,82.2 44.9,3.9 90,5.7 135.8,5.7 13.7,0 27.2,0 40.9,-0.6 13.2,-0.2 26.2,-0.7 39.3,-1.2 7.4,-0.3 14.8,-0.7 22.1,-1.1 6.7,-0.5 13.3,-1 20,-1.5 3.3,0 6.2,-0.4 9.2,-0.7 3.7,-0.2 7.4,-0.4 11.2,-0.7 19.1,-1.6 38.1,-3.5 57,-5.8 1,-0.1 2,-0.2 3,-0.3 7.5,-0.9 15.2,-1.8 22.7,-3 2.4,-0.3 4.7,-0.5 7,-0.8 4.3,-0.6 8.6,-1.2 13,-1.8 1.9,-0.3 3.8,-0.7 5.7,-1 16.3,-2.3 32.4,-5 48.5,-7.8 17.3,-3.1 34.5,-6.5 51.6,-10.1 1.9,-0.4 3.9,-0.8 5.8,-1.3 0.9,-0.2 1.8,-0.2 2.7,-0.5 6,-1.2 12.2,-2.7 18.2,-4.2 13.8,-3 27.2,-6.3 40.7,-9.9 2.7,-0.5 5.5,-1.2 8.2,-1.8 1.3,-0.4 2.7,-0.7 4.1,-1.1 1.8,-0.5 3.6,-1 5.3,-1.6 15.6,-4.2 31.1,-8.4 46.7,-13.1 14.9,-4.2 29.6,-9 44.2,-13.8 6.9,-2.1 13.8,-4.5 20.4,-6.9 29.3,-9.8 58.3,-20.6 86.7,-32.3 7.8,-3 15.5,-6.3 23.3,-9.5 12,-5.1 23.6,-10.2 35.6,-15.6 9.5,-4.2 19.1,-8.4 28.4,-13.1 0.9,-0.5 1.9,-0.9 2.8,-1.3" /><path
         id="path428"
         style="fill:#cad0dd;fill-opacity:1;fill-rule:nonzero;stroke:none"
         d="m 11305.9,9333.5 h -7 c 2,3.5 4.1,7 6.1,10.5 v 0 c 0.4,0.7 0.8,1.4 1.3,2.1 0.2,0.4 0.4,0.8 0.7,1.2 0.1,0.3 0.3,0.5 0.4,0.8 23.7,40.2 49.1,79.4 75.9,117.4 0.1,0.1 0.1,0.1 0.2,0.2 0.3,0.5 0.6,0.8 0.9,1.3 0.4,0.5 0.7,1.1 1.1,1.6 0.1,0.2 0.3,0.4 0.4,0.6 18.2,25.6 37.1,50.7 56.7,75.2 h 7.6 c -53.2,-66.4 -101.5,-136.9 -144.3,-210.9" /><path
         id="path430"
         style="fill:#cad0dd;fill-opacity:1;fill-rule:nonzero;stroke:none"
         d="m 11089.5,8670.6 h -6 c 0.6,4.5 1.1,8.9 1.6,13.3 0.1,1.7 0.2,3.4 0.4,5.1 0.3,2.9 0.7,5.7 1,8.5 0.1,0.9 0.3,1.7 0.4,2.5 l 0.3,0.9 v 0.3 0.9 c 0,0.4 0,0.7 0,1.1 0.1,0.7 0.2,1.4 0.3,2.1 v 0.1 0.1 c 0.1,0.4 0.1,0.7 0.1,1 l 0.2,0.7 c 7.6,59.1 18.2,117.3 31.7,174.3 h 6.2 c -16.4,-68.7 -28.6,-139.2 -36.2,-210.9" /><path
         id="path432"
         style="fill:#cad0dd;fill-opacity:1;fill-rule:nonzero;stroke:none"
         d="m 11156.9,7983.5 h -6.3 c -0.2,0.6 -0.4,1.2 -0.6,1.9 l -0.3,1 c -0.6,1.8 -1.2,3.6 -1.7,5.4 0,0.2 -0.1,0.3 -0.1,0.4 -0.5,1.7 -1,3.4 -1.6,5 -1.6,5.6 -3.3,11.1 -4.9,16.7 -2.3,7.9 -4.5,15.9 -6.6,23.8 l -4.8,17.6 c -1.2,4.2 -2.3,8.4 -3.4,12.5 -1.4,5.6 -2.8,11.1 -4.1,16.6 -1.7,6.7 -3.2,13.3 -4.8,20 -0.1,0.4 -0.2,0.8 -0.3,1.2 -0.4,1.7 -0.7,3.3 -1.1,4.9 -3.2,14.9 -6.4,29.8 -9.4,44.7 -1,4.4 -1.9,8.9 -2.8,13.3 -1.1,5.6 -2.1,11.1 -3.1,16.7 -0.5,3 -1.1,6.1 -1.6,9.1 h 6.1 c 12.7,-72 29.9,-142.3 51.4,-210.8" /><path
         id="path434"
         style="fill:#545e72;fill-opacity:1;fill-rule:nonzero;stroke:none"
         d="m 11271.4,7694.4 v 0 c -7.4,14 -14.7,28.1 -21.7,42.3 7,-14.1 14.4,-28.2 21.7,-42.3 v 0 0 m -22.3,43.4 c -6.6,13.3 -13,26.8 -19.3,40.4 2,-4.4 4.1,-8.8 6.3,-13.2 l 13,-27.2 m -43.5,95.2 c -18.9,45 -36,90.9 -51,137.8 1.3,-4.1 2.7,-8.2 4.1,-12.3 l 12.2,-35.9 c 5.4,-15 10.8,-29.6 16.5,-44.3 l 7.8,-19.7 8.6,-21.2 c 0.6,-1.5 1.2,-3 1.8,-4.4 m -55,150.3 c -0.3,1 -0.6,2.1 -0.9,3.1 l 0.3,-1 c 0.2,-0.7 0.4,-1.3 0.6,-1.9 0,-0.1 0,-0.1 0,-0.2 m -2.6,8.5 c -0.6,1.8 -1.1,3.6 -1.7,5.4 0.6,-1.6 1.1,-3.3 1.6,-5 0,-0.1 0.1,-0.2 0.1,-0.4 m -6.6,22.1 c -5.2,17.9 -10.1,35.8 -14.8,53.9 1.1,-4.1 2.2,-8.3 3.4,-12.5 l 4.8,-17.6 c 2.1,-7.9 4.3,-15.9 6.6,-23.8 m -18.9,70.5 c -1.8,7.1 -3.4,14.1 -5.1,21.2 0.1,-0.4 0.2,-0.8 0.3,-1.2 1.6,-6.7 3.1,-13.3 4.8,-20 m -6.2,26.1 c -4.4,19.2 -8.5,38.6 -12.2,58 0.9,-4.4 1.8,-8.9 2.8,-13.3 3,-14.9 6.2,-29.8 9.4,-44.7 m -15.3,74.7 c -2.2,12.3 -4.3,24.8 -6.3,37.2 1.5,-9.4 3.1,-18.7 4.7,-28.1 0.5,-3 1.1,-6.1 1.6,-9.1 m -26.4,250.5 v 0 0 0 m -0.3,10.8 c -0.1,6.5 -0.2,12.9 -0.3,19.4 0.1,-6.3 0.2,-12.6 0.3,-18.8 0,-0.2 0,-0.4 0,-0.6 m -0.1,77.8 c 0.1,6.6 0.3,13.2 0.5,19.7 -0.2,-5.2 -0.3,-10.4 -0.4,-15.6 0,-1.4 -0.1,-2.7 -0.1,-4.1 m 7.3,126.7 c 1.2,12.7 2.5,25.4 4,38 -0.2,-1.7 -0.3,-3.4 -0.4,-5.1 -0.5,-4.4 -1,-8.8 -1.6,-13.3 -0.7,-6.5 -1.4,-13 -2,-19.6 m 5,46.5 c 0.2,1.9 0.5,3.8 0.7,5.7 0,-0.4 0,-0.7 0,-1.1 v -0.9 -0.3 l -0.3,-0.9 c -0.1,-0.8 -0.3,-1.6 -0.4,-2.5 m 1,7.8 c 0,0.1 0,0.2 0,0.2 v -0.1 -0.1 m 0.1,1.2 c 7.9,61.3 19,121.6 33.2,180.7 -0.4,-1.9 -0.9,-3.8 -1.3,-5.7 -13.5,-57 -24.1,-115.2 -31.7,-174.3 l -0.2,-0.7 m 131.6,470.3 c 0,0.1 0.1,0.2 0.1,0.2 0,-0.1 0,-0.1 -0.1,-0.2 m 1,2.2 c 0.1,0.3 0.2,0.6 0.4,0.8 -0.2,-0.2 -0.3,-0.5 -0.4,-0.8 m 1.1,2.4 c 0.2,0.6 0.4,1.1 0.7,1.7 -0.2,-0.6 -0.5,-1.2 -0.7,-1.7 m 1,2.3 c 24.8,55.1 52.4,108.6 82.7,160.3 -2,-3.5 -4.1,-7 -6.1,-10.5 -27.9,-48.5 -53.5,-98.5 -76.6,-149.8 m 82.7,160.3 c 0.4,0.7 0.8,1.4 1.3,2.1 -0.5,-0.7 -0.9,-1.4 -1.3,-2.1 m 2,3.3 c 0.1,0.3 0.3,0.5 0.4,0.8 -0.1,-0.3 -0.3,-0.5 -0.4,-0.8 m 76.3,118.2 c 0.1,0.1 0.1,0.2 0.2,0.2 -0.1,-0.1 -0.1,-0.1 -0.2,-0.2 m 1.1,1.5 c 0.4,0.5 0.7,1.1 1.1,1.6 -0.4,-0.5 -0.7,-1.1 -1.1,-1.6 m 1.5,2.2 c 307,432.1 811.6,714 1382,714 26.9,0 53.7,-0.6 80.3,-1.9 -13.1,0.5 -26.1,1 -39.3,1.2 -13.7,0.6 -27.2,0.6 -40.9,0.6 -45.8,0 -90.9,-1.8 -135.8,-5.7 -140.2,-10.7 -275.7,-38.8 -403.9,-82.2 -23.1,-7.5 -46.1,-15.8 -68.5,-24.5 -39.6,-15.2 -78.5,-31.9 -116.7,-50 -30.2,-14.3 -59.9,-29.6 -89,-45.7 -197.9,-108.4 -371.7,-255.3 -511.5,-430.6 -19.6,-24.5 -38.5,-49.6 -56.7,-75.2 m 2494.1,297.9 c -5.1,4.4 -10.3,8.8 -15.6,13.3 -14.3,12.2 -28.9,24.2 -43.6,35.8 -16.5,13.2 -33.2,26 -50.5,38.3 -13.8,10.5 -27.5,20.3 -41.6,29.9 -32.9,22.7 -66.4,44.3 -101.1,64.6 -16.7,9.9 -33.5,19.4 -50.8,28.7 -15,8.4 -30.2,16.4 -45.8,24.2 -12.8,6.4 -25.6,12.9 -38.7,18.8 -0.9,0.4 -1.9,0.8 -2.8,1.3 -9.3,4.7 -18.9,8.9 -28.4,13.1 -12,5.4 -23.6,10.5 -35.6,15.6 -7.8,3.2 -15.5,6.5 -23.3,9.5 -28.4,11.7 -57.4,22.5 -86.7,32.3 -6.6,2.4 -13.5,4.8 -20.4,6.9 -14.6,4.8 -29.3,9.6 -44.2,13.8 -15.6,4.7 -31.1,8.9 -46.7,13.1 -1.7,0.6 -3.5,1.1 -5.3,1.6 255.6,-67 487.6,-192.3 681.1,-360.8 m -685.2,361.9 c -2.7,0.6 -5.5,1.3 -8.2,1.8 -13.5,3.6 -26.9,6.9 -40.7,9.9 -6,1.5 -12.2,3 -18.2,4.2 -0.9,0.3 -1.8,0.3 -2.7,0.5 -1.9,0.5 -3.9,0.9 -5.8,1.3 25.4,-5.3 50.6,-11.3 75.6,-17.7 m -127.2,27.8 c -16.1,2.8 -32.2,5.5 -48.5,7.8 -1.9,0.3 -3.8,0.7 -5.7,1 18.1,-2.7 36.2,-5.6 54.2,-8.8 m -67.2,10.6 c -2.3,0.3 -4.6,0.5 -7,0.8 -7.5,1.2 -15.2,2.1 -22.7,3 -1,0.1 -2,0.2 -3,0.3 10.9,-1.2 21.8,-2.6 32.7,-4.1 m -89.7,9.9 c -3.8,0.3 -7.5,0.5 -11.2,0.7 -3,0.3 -5.9,0.7 -9.2,0.7 -6.7,0.5 -13.3,1 -20,1.5 13.5,-0.8 27,-1.8 40.4,-2.9" /><path
         id="path436"
         style="fill:#d6dce8;fill-opacity:1;fill-rule:nonzero;stroke:none"
         d="m 11273.2,7703.9 c -46.7,88.8 -85.8,182.3 -116.3,279.6 h 181.6 c -24.8,-88.8 -46.6,-181.8 -65.3,-279.6 m 132,490.4 h -299.7 c -16.9,95.7 -25.7,194.3 -25.7,294.8 0,61.4 3.3,121.9 9.7,181.5 h 540.7 c -85.3,-140.1 -161.3,-298.1 -225,-476.3 m 370.1,687.2 h -649.6 c 38.3,160.8 99.5,312.7 180.2,452 h 949.4 c -170.4,-116.3 -334.2,-264.1 -480,-452 m 867.4,662.9 h -1192.5 c 162,202 369.5,365.9 606.9,476.3 h 1421.6 c 153.6,-71.4 294.8,-165.3 419.1,-277.4 -25.3,2.6 -96.9,8.7 -201.2,8.7 -235.9,0 -639.2,-31.5 -1053.9,-207.6" /><path
         id="path438"
         style="fill:#c7cdd9;fill-opacity:1;fill-rule:nonzero;stroke:none"
         d="m 13478.7,10020.7 h -1421.6 c 216,100.4 456.8,156.5 710.8,156.5 254,0 494.8,-56.1 710.8,-156.5" /><path
         id="path440"
         style="fill:#c7cdd9;fill-opacity:1;fill-rule:nonzero;stroke:none"
         d="m 12255.3,9333.5 h -949.4 c 42.8,74 91.1,144.5 144.3,210.9 h 1192.5 c -129.6,-55 -260.4,-124.2 -387.4,-210.9" /><path
         id="path442"
         style="fill:#c7cdd9;fill-opacity:1;fill-rule:nonzero;stroke:none"
         d="m 11630.2,8670.6 h -540.7 c 7.6,71.7 19.8,142.2 36.2,210.9 h 649.6 c -50.7,-65.3 -99.3,-135.5 -145.1,-210.9" /><path
         id="path444"
         style="fill:#c7cdd9;fill-opacity:1;fill-rule:nonzero;stroke:none"
         d="m 11338.5,7983.5 h -181.6 c -21.5,68.5 -38.7,138.8 -51.4,210.8 h 299.7 c -24,-67.3 -46.4,-137.7 -66.7,-210.8" /><path
         id="path446"
         style="fill:#292c47;fill-opacity:1;fill-rule:nonzero;stroke:none"
         d="m 6572.86,6587.7 734.59,-403.8 737.7,1160.9 -892.23,309.9 -580.06,-1067" /><path
         id="path448"
         style="fill:#e2d2ca;fill-opacity:1;fill-rule:nonzero;stroke:none"
         d="m 6619.44,6622.5 686.98,-377.6 689.87,1085.7 -834.39,289.8 -542.46,-997.9" /><path
         id="path450"
         style="fill:#eea886;fill-opacity:1;fill-rule:nonzero;stroke:none"
         d="m 6367.86,6825.6 c 0,0 127.86,61.1 183.98,93.1 56.12,31.9 200.48,75.8 212.14,86.2 11.66,10.5 427.94,36.1 453.19,57.9 25.25,21.8 49.8,-51 -58.09,-74.7 -107.89,-23.6 -258.04,-81.4 -266.25,-123.5 -8.21,-42.2 110.82,-52.2 122.88,-86.9 12.05,-34.8 -3.39,-27 -20.45,-34.4 -17.06,-7.5 -141.58,61.5 -196.32,41.9 -54.77,-19.6 -138.46,7.5 -180.43,-6.8 -41.98,-14.4 -246.03,-83 -246.03,-83 l -4.62,130.2" /><path
         id="path452"
         style="fill:#eea886;fill-opacity:1;fill-rule:nonzero;stroke:none"
         d="m 7343.26,6329.5 c 0,0 107.41,96.7 159.39,137.2 51.97,40.4 149.53,159.4 163.88,166.3 14.37,6.9 200.67,389.2 231.02,404.5 30.36,15.3 -28.72,66.8 -93.01,-25.6 -64.28,-92.5 -177.2,-211.5 -220.13,-202.8 -42.94,8.7 -5.99,124.7 -34.03,149.6 -28.05,24.9 -26.72,7.3 -40.38,-5.9 -13.66,-13.1 2.84,-157.3 -36.92,-201.3 -39.77,-44 -46.82,-133.4 -76.7,-167.4 -29.89,-33.9 -174.05,-199.5 -174.05,-199.5 l 120.93,-55.1" /><path
         id="path454"
         style="fill:#424773;fill-opacity:1;fill-rule:nonzero;stroke:none"
         d="m 5030.01,1162.4 c 0,0 -23.23,-161.3 -26.14,-185.502 -2.9,-24.296 -258.47,14.204 -258.47,14.204 l -20.7,191.998 c 0,0 273.36,2 305.31,-20.7" /><path
         id="path456"
         style="fill:#292c47;fill-opacity:1;fill-rule:nonzero;stroke:none"
         d="m 5006.59,997.402 c 0,0 80.97,-97.203 159.29,-139.601 78.32,-42.301 201.39,-59.102 247.69,-103 33.43,-31.602 121.76,-167.903 -203.5,-165.102 -325.28,2.703 -482.1,-19.297 -516.94,33 -34.86,52.203 50.41,385.601 50.41,385.601 0,0 77.04,-27.698 263.05,-10.898" /><path
         id="path458"
         style="fill:#424773;fill-opacity:1;fill-rule:nonzero;stroke:none"
         d="m 6861.18,1162.4 c 0,0 -23.23,-161.3 -26.13,-185.502 -2.91,-24.296 -258.48,14.204 -258.48,14.204 l -20.69,191.998 c 0,0 273.36,2 305.3,-20.7" /><path
         id="path460"
         style="fill:#292c47;fill-opacity:1;fill-rule:nonzero;stroke:none"
         d="m 6837.76,997.402 c 0,0 80.98,-97.203 159.29,-139.601 78.32,-42.301 366.52,-77.102 412.83,-121 33.43,-31.602 89.03,-159 -368.64,-147.102 -325.16,8.403 -482.09,-19.297 -516.94,33 -34.86,52.203 50.43,385.601 50.43,385.601 0,0 72.56,-29.601 263.03,-10.898" /><path
         id="path462"
         style="fill:#292c47;fill-opacity:1;fill-rule:nonzero;stroke:none"
         d="m 5241.64,5306.4 c 0,0 -240.14,-381.5 -222.23,-726.4 17.92,-344.9 -87.07,-721.4 -123.14,-1081.7 -40.22,-401.6 -204.8,-1352.4 -210.76,-1567.3 -5.97,-214.8 25.54,-900.8 25.54,-900.8 l 329.45,-7.6 c 0,0 276.7,1662.3 348.36,1831.9 71.66,169.6 427.03,1378.8 438.97,1514.5 11.95,135.7 -586.19,937.4 -586.19,937.4" /><path
         id="path464"
         style="fill:#292c47;fill-opacity:1;fill-rule:nonzero;stroke:none"
         d="m 6505.76,5254.7 c 0,0 180.97,-945.2 204.86,-1156.3 23.89,-211.1 39.81,-1021.5 51.75,-1153.4 11.95,-132 79.63,-1726.4 143.33,-1922.4 h -421.18 c 0,0 -323.31,1159.1 -323.31,1707.5 0,548.4 -249.77,1192.3 -411,1554.1 -161.24,361.8 -530.31,370.4 -629.42,1041.7 0,0 1250.78,141.7 1384.97,-71.2" /><path
         id="path466"
         style="fill:#eea886;fill-opacity:1;fill-rule:nonzero;stroke:none"
         d="m 5642.35,8514.1 c 0,0 322.33,120.4 470.94,-125 148.62,-245.3 134.3,-736.5 -28.16,-796.9 -162.47,-60.4 -406.54,-28.9 -489.71,124.7 -83.18,153.5 -158.28,375.5 -154.67,523.8 3.61,148.3 116.97,230.6 201.6,273.4" /><path
         id="path468"
         style="fill:#eea886;fill-opacity:1;fill-rule:nonzero;stroke:none"
         d="m 6050.14,7580.9 c 0,0 -13.41,-87 8.76,-129.9 22.16,-42.8 -417.59,-43.9 -417.59,-43.9 0,0 -35.7,233.1 -103.38,430.1 -67.68,197.1 512.21,-256.3 512.21,-256.3" /><path
         id="path470"
         style="fill:#3a3f47;fill-opacity:1;fill-rule:nonzero;stroke:none"
         d="m 5537.93,7837.2 c 0,0 30.34,-50 154.24,-30.6 123.89,19.4 275.04,184.3 326.77,202.4 51.72,18.1 52.22,48.4 52.22,48.4 l 32.38,-47.3 54.95,-3.4 c 0,0 -50.12,147.4 25.48,207.5 75.6,60.2 -78.46,477.3 -475.79,338.4 0,0 -305.17,-84.1 -294.08,-257.7 11.11,-173.5 55.54,-371.2 123.83,-457.7" /><path
         id="path472"
         style="fill:#e2d2ca;fill-opacity:1;fill-rule:nonzero;stroke:none"
         d="m 6084.99,7456.2 c 0,0 -1.39,81.9 -38.52,89.8 -37.11,7.8 -409.79,43.6 -455.37,25.7 v -95.4 c 0,0 87.81,-54 493.89,-20.1" /><path
         id="path474"
         style="fill:#eea886;fill-opacity:1;fill-rule:nonzero;stroke:none"
         d="m 6062.95,8120.6 c -6.94,29.1 -80.98,112.3 -109.33,23.2 -28.34,-89.1 42.84,-208.9 82.53,-198.6 39.7,10.2 44.42,101.6 26.8,175.4" /><path
         id="path476"
         style="fill:#323657;fill-opacity:1;fill-rule:nonzero;stroke:none"
         d="m 7564.05,6488.4 -0.61,0.1 c 2.56,-1.1 2.92,-1.2 0.61,-0.1" /><path
         id="path478"
         style="fill:#323657;fill-opacity:1;fill-rule:nonzero;stroke:none"
         d="m 4970.73,4397.5 c 0,0 197.66,-58.2 534.75,-95.4 337.08,-37.1 1179.3,13.5 1184.6,53.3 5.33,39.8 -181.17,1482.8 -170.56,1557.2 10.61,74.3 16.3,339.1 16.3,339.1 4.16,-72.6 78.08,-368.9 167.3,-530.5 32.24,-58.4 140.39,-241.3 192.51,-199.7 252.31,201.5 643.01,960.6 667.79,967 -20.83,9 -185.17,84.7 -208.23,92.4 -20.19,6.7 -202.21,-186 -312.5,-305.5 -49.18,-53.2 -84.1,-91.9 -84.1,-91.9 -31.84,71.7 -147.86,523.1 -183.89,679.3 -81.31,352.3 -68.8,367 -68.8,367 -246.6,74.6 -620.91,226.4 -620.91,226.4 l -493.9,20.1 c 0,0 -453.28,-99.8 -631.79,-180.4 -16.94,-7.6 -17.01,-404.4 -63.49,-508.4 l 148.01,-312.2 c 0,0 85.5,-618.6 103.24,-893.6 8.15,-126.3 -176.33,-1184.2 -176.33,-1184.2" /><path
         id="path480"
         style="fill:#323657;fill-opacity:1;fill-rule:nonzero;stroke:none"
         d="m 4875.31,6272.4 c 12.89,-41.6 71.46,-76.8 109.48,-92.2 24.36,-9.8 51.64,-13 79.08,-7.9 l 19.34,3.6 v 0 l 338.47,62.8 c 0,0 74.06,852.9 -462.38,1057.2 -14.19,-4.6 -202.45,-641.6 -83.99,-1023.5" /><path
         id="path482"
         style="fill:#252840;fill-opacity:1;fill-rule:nonzero;stroke:none"
         d="m 4984.79,6180.3 v -0.1 c 24.36,-9.8 51.64,-13 79.08,-7.9 l 19.34,3.6 v 0 l -33.38,435.8 -65.04,-431.4" /><path
         id="path484"
         style="fill:#252840;fill-opacity:1;fill-rule:nonzero;stroke:none"
         d="m 6958.59,6183.5 41.37,-175.2 c 0,0 44.89,175.8 42.73,267.1 -49.18,-53.2 -84.1,-91.9 -84.1,-91.9" /><path
         id="path486"
         style="fill:#3a3f47;fill-opacity:1;fill-rule:nonzero;stroke:none"
         d="m 5550.56,8485.1 c 0,0 -422.46,48.8 -7.22,-656.8 l 7.22,656.8" /><path
         id="path488"
         style="fill:#292c47;fill-opacity:1;fill-rule:nonzero;stroke:none"
         d="m 7705.56,7407.1 42.93,73.7 -338.21,116.7 -42.93,-73.4 338.21,-117" /><path
         id="path490"
         style="fill:#eea987;fill-opacity:1;fill-rule:nonzero;stroke:none"
         d="m 11986.7,6739.1 c 0,0 67,62.1 53.7,108.6 -11.3,39.6 5.7,83.9 9.9,102.2 5.8,24.4 8,103.4 26.2,99.1 30.8,-7.4 23.7,-133.6 27.4,-160.5 3.8,-26.8 85.2,63.1 113.1,67.9 27.8,4.7 169.2,-138.6 106.2,-193.9 -63,-55.3 -149.9,-77.7 -159.1,-89.6 -9.1,-12 -52.3,-44.7 -52.3,-44.7 l -125.1,110.9" /><path
         id="path492"
         style="fill:#eea987;fill-opacity:1;fill-rule:nonzero;stroke:none"
         d="m 12199.2,6946.9 c 0,0 204.2,156.5 226.5,155.6 22.3,-1 30.2,-12.6 11.7,-28 -18.5,-15.4 -192.9,-156.9 -192.9,-156.9 0,0 272.8,144.6 291.2,147.8 10.8,1.9 19,-18.7 9.9,-27.9 -9.1,-9.2 -263,-168.8 -263,-168.8 0,0 254.9,134.5 271.2,132.6 14.2,-1.7 24.4,-25.2 6.2,-36.4 -18.3,-11.3 -247.8,-149.6 -247.8,-149.6 0,0 191.7,86.3 204.5,76.6 7.8,-6 18.8,-19.1 -31.3,-39.8 -50.2,-20.7 -159.3,-86.8 -159.3,-86.8 l -126.9,181.6" /><path
         id="path494"
         style="fill:#e8734d;fill-opacity:1;fill-rule:nonzero;stroke:none"
         d="m 10568.5,8626.6 c 0,0 488.4,40.6 475,-473.2 -13.3,-513.7 -94.8,-591 0.3,-954 95.1,-363.1 -476.1,206.1 -476.1,206.1 l 0.8,1221.1" /><path
         id="path496"
         style="fill:#363a5e;fill-opacity:1;fill-rule:nonzero;stroke:none"
         d="m 9080.84,937.699 c 0,0 -181.34,-254.699 -156.46,-295.097 24.87,-40.403 215.57,-46.2 331.66,0 116.07,46.097 118.83,344.699 171.34,472.998 21.99,53.7 -25.06,212.2 -91.2,223.7 -66.14,11.5 -138.09,-22.3 -138.09,-22.3 0,0 68.61,-180.7 -117.25,-379.301" /><path
         id="path498"
         style="fill:#eea886;fill-opacity:1;fill-rule:nonzero;stroke:none"
         d="m 9196.87,1319.1 c 0,0 -38.15,-108.5 -52.09,-212.1 -11.57,-85.9 -129.19,-268.301 -123.67,-291.398 5.53,-23 154.77,-43.899 215.58,15.5 60.8,59.5 99.92,232.498 113.31,335.998 12.47,96.3 28.2,143.9 28.2,143.9 0,0 -123.3,71.5 -181.33,8.1" /><path
         id="path500"
         style="fill:#363a5e;fill-opacity:1;fill-rule:nonzero;stroke:none"
         d="m 10659.3,933.5 c 0,0 -174.8,-250.5 -150,-290.898 24.9,-40.403 215.6,-46.2 331.7,0 116.1,46.097 118.8,344.699 171.3,472.998 22,53.7 -25,212.2 -91.2,223.7 -66.1,11.5 -143.7,-24.7 -143.7,-24.7 0,0 67.7,-182.5 -118.1,-381.1" /><path
         id="path502"
         style="fill:#eea886;fill-opacity:1;fill-rule:nonzero;stroke:none"
         d="m 10777.4,1314.6 c 0,0 -13.8,-118.3 -35.9,-201.9 -22.1,-83.7 -141,-274.001 -135.4,-297.098 5.5,-23 154.7,-43.899 215.5,15.5 60.8,59.5 107.8,231.698 113.4,335.998 5.5,104.2 -13.9,172.2 -13.9,172.2 0,0 -85.6,38.7 -143.7,-24.7" /><path
         id="path504"
         style="fill:#313657;fill-opacity:1;fill-rule:nonzero;stroke:none"
         d="m 9903.9,5462 c 0,0 -155.61,-755.4 -191.34,-945.6 -35.74,-190.2 -135.81,-1111.4 -146.52,-1268 -10.73,-156.6 -162.39,-746.8 -155.23,-802.7 7.14,-56 -246.31,-1164.7 -246.31,-1164.7 0,0 179.58,-19.4 251.16,10.5 48.95,20.5 442.05,1020.5 442.05,1300.2 0,386.6 215.89,891.4 247.19,979.4 308.1,866.2 364.6,1071.8 407.5,1124 0,0 6.5,-70.7 21.1,-188.1 16.9,-135 90.4,-1099 122.5,-1225.8 32.2,-126.8 7.2,-555.6 25.1,-771.9 17.9,-216.3 51,-1203 51,-1203 0,0 161.3,-7 232.4,35.4 23.8,14.2 106.1,1060.2 109.7,1317.5 3.5,257.3 7.4,612.2 14.3,723.5 66.2,1066.3 228.9,1218.6 -27.4,1973.3 -479.9,1413 -1157.2,106 -1157.2,106" /><path
         id="path506"
         style="fill:#363a5e;fill-opacity:1;fill-rule:nonzero;stroke:none"
         d="M 9432.25,1138 V 871.301 h -33.17 V 1077.4 l 33.17,60.6" /><path
         id="path508"
         style="fill:#363a5e;fill-opacity:1;fill-rule:nonzero;stroke:none"
         d="M 11017.2,1138 V 871.301 H 10984 V 1077.4 l 33.2,60.6" /><path
         id="path510"
         style="fill:#eea886;fill-opacity:1;fill-rule:nonzero;stroke:none"
         d="m 10365.3,7259.6 c 0,0 42.9,100.9 74.8,214.1 1.5,5.4 2.9,10.8 4.3,16.3 3.8,14.7 7.3,29.6 10.5,44.5 1.8,8.4 3.4,16.7 4.9,25.1 11.4,62.5 14.5,122.2 0.1,164.7 -47.4,139.9 296.9,43 296.9,43 0,0 -66.7,-370 0,-494.8 66.7,-124.8 -391.5,-12.9 -391.5,-12.9" /><path
         id="path512"
         style="fill:#eddad3;fill-opacity:1;fill-rule:nonzero;stroke:none"
         d="m 10949.2,7265.7 c 38.4,48 -231.3,64.7 -231.3,64.7 l -314.5,27.1 c 0,0 -216.3,-36 -384.1,-94.1 -167.84,-58.1 -387.69,-376 -387.69,-376 0,0 303.34,-712.1 361.46,-916.5 58.03,-204.4 -65.89,-724.4 -65.89,-724.4 363.62,-198 1081.72,-21.2 1081.72,-21.2 0,0 -286.3,1756.7 -59.7,2040.4" /><path
         id="path514"
         style="fill:#cfbeb8;fill-opacity:1;fill-rule:nonzero;stroke:none"
         d="m 11077.4,6407.3 c 0,0 -14.1,-29.8 -52.9,-147.3 -39.5,330.1 -18.8,501.9 -18.8,501.9 4.3,-176.4 71.7,-354.6 71.7,-354.6" /><path
         id="path516"
         style="fill:#eea886;fill-opacity:1;fill-rule:nonzero;stroke:none"
         d="m 10735.4,7341.4 -370.2,-301.7 38.2,317.8 c 0,0 215.8,46.7 332,-16.1" /><path
         id="path518"
         style="fill:#494f80;fill-opacity:1;fill-rule:nonzero;stroke:none"
         d="m 10979.7,6069.9 c -50.9,-211.2 206.6,-872 206.6,-872 l -434.7,-147.2 c -53.7,-18.2 -111.1,15.6 -121,71.5 -49,274.9 -176.1,1012 -190.5,1338.8 -17.9,406 277.7,885 277.7,885 525.5,-90.1 381.4,-885 381.4,-885 0,0 -19.1,-50.1 -44.6,-128.3 v -0.1 c -6.4,-19.6 -13.2,-41.1 -20.2,-63.9 -18,-58.8 -37.3,-127 -54.7,-198.8" /><path
         id="path520"
         style="fill:#494f80;fill-opacity:1;fill-rule:nonzero;stroke:none"
         d="m 10366.2,7340.2 6.4,17.3 c 0,0 -269,-40.9 -405.78,-109.2 -136.75,-68.3 -398.55,-421.1 -398.55,-421.1 l 342.41,-452.1 c 0.39,-347.4 -120.83,-1162.4 -120.83,-1162.4 l 237.95,-97.4 c 37.1,-15.1 77.8,11.7 78.4,51.8 3.8,248 15.4,982.8 21.2,1269.6 7.1,347.4 255.1,909.3 255.1,909.3 -5.6,-1.9 -11,-3.8 -16.3,-5.8" /><path
         id="path522"
         style="fill:#eea886;fill-opacity:1;fill-rule:nonzero;stroke:none"
         d="m 9878.31,5711.3 c 0,0 258.19,-10.1 298.29,0 40.2,10 308.1,126.2 324.2,240.9 16.1,114.8 -622.49,-102.8 -622.49,-102.8 v -138.1" /><path
         id="path524"
         style="fill:#707070;fill-opacity:1;fill-rule:nonzero;stroke:none"
         d="m 10679.4,6069.9 -1047.79,122.6 473.29,-385.1 z" /><path
         id="path526"
         style="fill:#a1a1a1;fill-opacity:1;fill-rule:nonzero;stroke:none"
         d="m 10104.9,5807.4 574.5,195.8 v 66.7 l -593.8,-190.5 19.3,-72" /><path
         id="path528"
         style="fill:#fae6de;fill-opacity:1;fill-rule:nonzero;stroke:none"
         d="m 10422.7,7416.2 -199,-315.8 -96.3,-60.7 224.4,314.5 70.9,62" /><path
         id="path530"
         style="fill:#d6c5be;fill-opacity:1;fill-rule:nonzero;stroke:none"
         d="m 10223.7,7100.4 141.5,-60.7 38.2,317.8 19.3,58.7 -199,-315.8" /><path
         id="path532"
         style="fill:#494f80;fill-opacity:1;fill-rule:nonzero;stroke:none"
         d="m 9909.86,5859 c 0,0 -10.75,-133.4 0,-161.3 0,0 -646.14,64.5 -706.37,154.9 -60.25,90.3 -58.1,200 -58.1,200 L 9909.86,5859" /><path
         id="path534"
         style="fill:#a1a1a1;fill-opacity:1;fill-rule:nonzero;stroke:none"
         d="m 10104.9,5807.4 -305.48,1135.9 -1161.76,122.7 318.4,-1045.6 1148.84,-213" /><path
         id="path536"
         style="fill:#494f80;fill-opacity:1;fill-rule:nonzero;stroke:none"
         d="m 11610.7,6456.8 c 58.3,48 92.5,65.7 162.8,126.1 109.2,94.1 248.9,213.2 248.9,213.2 l 132.8,-194.9 c 0,0 -321.1,-282.3 -491.8,-449.9 0,0 -216,-231.9 -264.2,-211.4 -48.3,20.5 -220.5,270.1 -358,510.1 -137.5,239.9 -199.1,393.1 -205.9,497.6 -6.9,104.5 339,154.9 339,154.9 l 270.8,-591.6 c 0,0 48.2,-84.6 72.8,-110.1 0,0 60.9,34.6 92.8,56" /><path
         id="path538"
         style="fill:#eea886;fill-opacity:1;fill-rule:nonzero;stroke:none"
         d="m 10616.3,8574.5 c -121.1,19.8 -398,-10.5 -476.5,-328.4 0,0 -0.2,-88 13,-158.8 13.3,-70.7 -70.9,-265.2 -56.1,-277 14.8,-11.7 79.4,-32 79.4,-32 0,0 45.9,-228.2 123.3,-235.1 77.5,-7 376.9,19.9 546,278 169.1,258.1 259.7,673.3 -229.1,753.3" /><path
         id="path540"
         style="fill:#e8734d;fill-opacity:1;fill-rule:nonzero;stroke:none"
         d="m 10139.8,8246.1 c 0,0 182.1,-157.3 375.1,-206.9 193,-49.6 295.2,-266.4 295.2,-266.4 0,0 341.4,340.6 135.4,671.1 -206.1,330.5 -805.4,183.1 -805.7,-197.8" /><path
         id="path542"
         style="fill:#e8734d;fill-opacity:1;fill-rule:nonzero;stroke:none"
         d="m 10550.4,8027.9 c 0,0 202.1,-530.2 178.4,-657.9 0,0 99.9,17.3 285.9,-39.6 0,0 -89.9,947 -464.3,697.5" /><path
         id="path544"
         style="fill:#d6c5be;fill-opacity:1;fill-rule:nonzero;stroke:none"
         d="m 10472.2,7090.9 -107,-51.2 363.6,360.4 z" /><path
         id="path546"
         style="fill:#fae6de;fill-opacity:1;fill-rule:nonzero;stroke:none"
         d="m 10728.8,7400.1 -256.6,-309.2 140.4,-125.2 151.6,370.1 -35.4,64.3" /><path
         id="path548"
         style="fill:#a77860;fill-opacity:1;fill-rule:nonzero;stroke:none"
         d="m 10658.4,7640.3 c -1.7,-2.7 -57.3,-89.2 -214,-150.3 3.8,14.7 7.3,29.6 10.5,44.5 1.8,8.4 3.4,16.7 4.9,25.1 0,0 129.7,31.7 198.6,80.7" /><path
         id="path550"
         style="fill:#828282;fill-opacity:1;fill-rule:nonzero;stroke:none"
         d="m 9408,6468.4 c 32.32,-60.8 31.79,-124.3 -1.17,-141.8 -32.97,-17.6 -85.9,17.5 -118.23,78.3 -32.31,60.9 -31.78,124.3 1.19,141.9 32.97,17.5 85.89,-17.6 118.21,-78.4" /><path
         id="path552"
         style="fill:#494f80;fill-opacity:1;fill-rule:nonzero;stroke:none"
         d="m 10764.2,7335.8 c 0,0 338.3,46 436.9,-308.3 0,0 -430.3,46.2 -436.9,308.3" /><g
         transform="scale(1.33308)"
         id="g554"><path
           id="path556"
           style="fill:#ffffff;fill-opacity:1;fill-rule:nonzero;stroke:none"
           d="m 16015.8,8217.24 h -1197.1 l 477.2,477.13 631.1,631.11 c 37.3,-8.4 76.4,-16.65 119.2,-25.13 l 4.8,24.14 c -36.8,7.3 -70.9,14.42 -103.4,21.61 l 352.4,352.45 v -420.07 l -27.4,4.9 c -30.2,5.41 -60.7,10.84 -91.2,16.4 l -4.3,-24.22 c 30.5,-5.57 60.9,-11.01 91.2,-16.43 l 31.7,-5.67 v -751.97 c 0,-156.98 -127.3,-284.25 -284.2,-284.25 m -1102.7,2780.46 v 644.4 0.1 h -785.3 c -10.7,21.8 -22,43.5 -33.6,65 l -21.7,-11.7 c 9.6,-17.7 18.9,-35.5 27.9,-53.3 H 12322 v 911 c 0,157 127.2,284.3 284.2,284.3 h 172.5 c 9.5,-4.8 19,-9.5 28.4,-14.3 l 7.2,14.3 h 3201.5 c 156.9,0 284.2,-127.3 284.2,-284.3 v -168.7 l -1386.9,-1386.8 m -961.6,935.3 -20,-14.5 c 26,-35.8 51,-72.6 74.2,-109.2 l 20.8,13.1 c -23.4,37.1 -48.7,74.3 -75,110.6 m -169.3,206.5 -18.1,-16.6 c 30,-32.7 59.2,-66.3 86.7,-99.8 l 19,15.6 c -27.8,33.9 -57.3,67.8 -87.6,100.8 m -190.2,187.3 -16.4,-18.3 c 33.1,-29.7 65.6,-60.1 96.5,-90.5 l 17.3,17.5 c -31.3,30.7 -64,61.4 -97.4,91.3 m -206.7,168.9 -14.8,-19.8 c 35.6,-26.6 70.7,-54 104.4,-81.5 l 15.5,19.1 c -33.9,27.7 -69.3,55.3 -105.1,82.2 m -219.5,151.6 -13.2,-20.8 c 37.5,-23.9 74.6,-48.5 110.4,-73.2 l 14,20.2 c -36.1,24.9 -73.4,49.7 -111.2,73.8 m -229.6,135.6 -11.8,-21.6 c 39,-21.3 77.7,-43.4 115.2,-65.5 l 12.5,21.2 c -37.7,22.3 -76.7,44.5 -115.9,65.9" /></g><g
         id="g558"><g
           clip-path="url(#clipPath564)"
           id="g560"><g
             transform="scale(1.33308)"
             id="g566"><path
               id="path574"
               style="fill:url(#linearGradient572);fill-opacity:1;fill-rule:nonzero;stroke:none"
               d="m 15295.9,8694.37 v 871 l 7.8,13.83 c -2.6,1.5 -5.2,3.02 -7.8,4.53 v 827.07 c 0,235.3 -163.3,432.3 -382.8,484 v 102.9 L 16300,12384.5 V 9698.55 l -352.4,-352.45 c -8.9,1.97 -17.7,3.94 -26.4,5.92 l -5.5,-24.01 c 3.8,-0.85 7.5,-1.69 11.3,-2.53 l -631.1,-631.11 m 369.9,727.09 -7.5,-23.42 c 40.6,-13.22 83.7,-25.98 127.9,-37.92 l 6.5,23.77 c -43.9,11.83 -86.5,24.47 -126.9,37.57 m -245.3,96.84 -10.5,-22.24 c 39.3,-18.68 80.5,-36.52 122.5,-53.04 l 9,22.92 c -41.5,16.31 -82.2,33.93 -121,52.36" /></g></g></g><g
         id="g576"><g
           clip-path="url(#clipPath582)"
           id="g578"><g
             transform="scale(1.25096)"
             id="g584"><path
               id="path592"
               style="fill:url(#linearGradient590);fill-opacity:1;fill-rule:nonzero;stroke:none"
               d="m 15791.5,8756.69 v 0 l 100.7,100.67 V 11610 c 233.8,-55.1 407.8,-265 407.8,-515.7 v -881.4 c -37.8,21.8 -75,45.2 -110.6,69.4 l -14.7,-21.7 c 38.8,-26.4 79.4,-51.8 120.7,-75.3 l 4.6,8 v -928.16 l -508.5,-508.45 m 179.8,1701.41 -18.1,-19.1 c 34.6,-32.6 70.6,-64.1 107.1,-93.6 l 16.5,20.4 c -36,29.1 -71.5,60.1 -105.5,92.3" /></g></g></g><g
         transform="scale(1.21966)"
         id="g594"><path
           id="path596"
           style="fill:#ffffff;fill-opacity:1;fill-rule:nonzero;stroke:none"
           d="m 16196.8,8981.42 h -2418.2 c -40.7,0 -79.6,7.8 -115.2,22.01 h 390.8 c 15.5,0 28.1,12.59 28.1,28.15 v 99.41 c 0,15.55 -12.6,28.15 -28.1,28.15 h -460.4 c -15.6,0 -28.2,-12.6 -28.2,-28.15 v -65.18 c -60.2,56.66 -97.7,137.08 -97.7,226.28 V 11860.1 H 15689 c 4,-12.1 8,-24.1 12.1,-36 l 25.5,8.6 c -3.2,9.1 -6.2,18.2 -9.2,27.4 h 582.5 v 864.6 h 0.1 V 12020.4 11908 9084.67 l -103.2,-103.25 m -1873,177.72 c -15.5,0 -28.1,-12.6 -28.1,-28.15 v -99.41 c 0,-15.56 12.6,-28.15 28.1,-28.15 h 90.7 c 15.5,0 28.2,12.59 28.2,28.15 v 99.41 c 0,15.55 -12.7,28.15 -28.2,28.15 h -90.7 m 1863.8,1779.96 -21.2,-16.7 c 30.4,-38.5 62.1,-76 94.2,-111.3 l 19.9,18.1 c -31.7,34.9 -63,71.9 -92.9,109.9 m -163.4,237.1 -23.1,-13.9 c 25.5,-42.1 52,-83.3 79,-122.5 l 22.1,15.3 c -26.6,38.7 -52.8,79.5 -78,121.1 m -136.1,254.4 -24.3,-11.5 c 21.1,-44.5 43.1,-88.3 65.4,-130.1 l 23.8,12.6 c -22.2,41.5 -44,84.9 -64.9,129 m -112.8,266 -25.1,-9.5 c 17.4,-46 35.6,-91.5 54.1,-135.2 l 24.7,10.5 c -18.2,43.4 -36.4,88.5 -53.7,134.2" /></g><g
         transform="scale(1.21965)"
         id="g598"><path
           id="path600"
           style="fill:#f3f7ff;fill-opacity:1;fill-rule:nonzero;stroke:none"
           d="m 16300,11860.2 h -582.5 c -12.1,36.1 -23.8,73.1 -35.2,110.3 l -25.8,-7.9 c 10.5,-34.5 21.4,-68.8 32.6,-102.4 H 13468 v 864.7 h 1943.7 c 11.8,-23.5 23.1,-47.2 33.8,-70.9 l 24.5,11.1 c -9,20 -18.4,39.9 -28.3,59.8 h 858.3 v -0.1 -864.6 m -694.7,389.6 -26.2,-6.5 c 11.9,-47.7 24.3,-95.1 36.9,-140.9 l 25.9,7.2 c -12.5,45.6 -24.9,92.7 -36.6,140.2 m -80,280.1 -25.3,-9.2 c 16.4,-45.1 31.3,-91.2 44,-136.9 l 26,7.2 c -13,46.4 -28,93.2 -44.7,138.9" /></g><g
         transform="scale(1.33308)"
         id="g602"><path
           id="path604"
           style="fill:#fdfdfd;fill-opacity:1;fill-rule:nonzero;stroke:none"
           d="m 16300,9253.46 -31.7,5.67 c -30.3,5.42 -60.7,10.86 -91.2,16.43 l 4.3,24.22 c 30.5,-5.56 61,-10.99 91.2,-16.4 l 27.4,-4.9 v -25.02 m -253.8,46.89 c -42.8,8.48 -81.9,16.73 -119.2,25.13 -3.8,0.84 -7.5,1.68 -11.3,2.53 l 5.5,24.01 c 8.7,-1.98 17.5,-3.95 26.4,-5.92 32.5,-7.19 66.6,-14.31 103.4,-21.61 l -4.8,-24.14 m -260,59.77 c -44.2,11.94 -87.3,24.7 -127.9,37.92 l 7.5,23.42 c 40.4,-13.1 83,-25.74 126.9,-37.57 l -6.5,-23.77 m -253.7,82.9 c -42,16.52 -83.2,34.36 -122.5,53.04 l 10.5,22.24 c 38.8,-18.43 79.5,-36.05 121,-52.36 l -9,-22.92 m -241,114.8 c -38.7,22.1 -76.8,45.9 -113.3,70.73 l 13.9,20.35 c 33.4,-22.78 68.3,-44.67 103.8,-65.17 2.6,-1.51 5.2,-3.03 7.8,-4.53 l -7.8,-13.83 -4.4,-7.55 m -220.5,150.27 c -34.3,27.65 -68.1,57.2 -100.6,87.83 l 17,17.89 c 31.9,-30.19 65.3,-59.31 99,-86.55 l -15.4,-19.17 m -193.9,183.15 c -29.4,32.35 -58.4,66.62 -86.2,101.86 l 19.4,15.2 c 27.4,-34.75 56,-68.58 85,-100.5 l -18.2,-16.56 m -165.2,209.26 c -24.6,35.9 -48.9,73.6 -72.2,112.1 l 21.1,12.7 c 23,-38.1 47,-75.4 71.4,-110.8 l -20.3,-14 m -138,228 c -20.5,38.3 -40.6,78.3 -59.8,119 l 22.2,10.5 c 19.1,-40.3 39,-80 59.4,-117.9 l -21.8,-11.6 m -114.3,240.6 c -16.9,39.9 -33.5,81.5 -49.5,123.6 l 23,8.7 c 15.8,-41.8 32.4,-83.1 49.2,-122.8 l -22.7,-9.5 m -94.4,248.9 c -3.7,10.9 -7.4,21.9 -11.1,33 -10.2,30.8 -20.1,62.2 -29.8,93.8 l 23.6,7.1 c 10.4,-34 21.2,-67.8 32.2,-100.9 2.8,-8.4 5.5,-16.7 8.4,-25 l -23.3,-8 m -78,254.7 c -11.5,41.9 -22.8,85.2 -33.7,128.9 l 24,5.9 c 10.7,-43.4 22,-86.6 33.5,-128.3 l -23.8,-6.5 m -65.8,257.4 c -11.7,41.8 -25.2,84 -40.3,125.2 l 23.2,8.5 c 15.3,-41.9 29,-84.6 40.8,-127.1 l -23.7,-6.6 m -90.1,247.2 c -9.9,21.6 -20.1,43.3 -30.9,64.9 -9,17.8 -18.3,35.6 -27.9,53.3 l 21.7,11.7 c 11.6,-21.5 22.9,-43.2 33.6,-65 9,-18.2 17.6,-36.5 25.9,-54.7 l -22.4,-10.2 m -125.6,232 c -23.2,36.6 -48.2,73.4 -74.2,109.2 l 20,14.5 c 26.3,-36.3 51.6,-73.5 75,-110.6 l -20.8,-13.1 m -154.9,213.8 c -27.5,33.5 -56.7,67.1 -86.7,99.8 l 18.1,16.6 c 30.3,-33 59.8,-66.9 87.6,-100.8 l -19,-15.6 m -178.7,194.9 c -30.9,30.4 -63.4,60.8 -96.5,90.5 l 16.4,18.3 c 33.4,-29.9 66.1,-60.6 97.4,-91.3 l -17.3,-17.5 m -197.2,176.4 c -33.7,27.5 -68.8,54.9 -104.4,81.5 l 14.8,19.8 c 35.8,-26.9 71.2,-54.5 105.1,-82.2 l -15.5,-19.1 m -211.9,158.9 c -35.8,24.7 -72.9,49.3 -110.4,73.2 l 13.2,20.8 c 37.8,-24.1 75.1,-48.9 111.2,-73.8 l -14,-20.2 m -223.4,142.5 c -37.5,22.1 -76.2,44.2 -115.2,65.5 l 11.8,21.6 c 39.2,-21.4 78.2,-43.6 115.9,-65.9 l -12.5,-21.2 m -232.5,127.4 c -9.4,4.8 -18.9,9.5 -28.4,14.3 h 35.6 l -7.2,-14.3" /></g><g
         transform="scale(1.05372)"
         id="g606"><path
           id="path608"
           style="fill:#fdfdfd;fill-opacity:1;fill-rule:nonzero;stroke:none"
           d="m 16267.4,10421.3 h -452.3 c -42.2,16.8 -80.5,41.5 -113.2,72.2 v 75.4 c 0,18 14.6,32.6 32.7,32.6 h 532.8 c 18,0 32.6,-14.6 32.6,-32.6 v -115 c 0,-18 -14.6,-32.6 -32.6,-32.6" /></g><g
         transform="scale(1.08068)"
         id="g610"><path
           id="path612"
           style="fill:#fdfdfd;fill-opacity:1;fill-rule:nonzero;stroke:none"
           d="m 16268.3,10161.3 h -102.5 c -17.5,0 -31.7,14.2 -31.7,31.7 v 112.2 c 0,17.6 14.2,31.8 31.7,31.8 h 102.5 c 17.4,0 31.7,-14.2 31.7,-31.8 V 10193 c 0,-17.5 -14.3,-31.7 -31.7,-31.7" /></g><g
         transform="scale(1.22071)"
         id="g614"><path
           id="path616"
           style="fill:#4aafff;fill-opacity:1;fill-rule:nonzero;stroke:none"
           d="m 15328.5,10768.9 c -335.3,-119.9 -696.6,-11.7 -914.5,244.3 -51.9,61.1 -95.7,130.5 -129,207.3 -7.4,16.9 -14.2,34.2 -20.5,51.8 -63.4,177.2 -63,361.7 -10.9,528.4 75.4,240.6 258.7,444.3 514.3,535.7 84.4,30.1 170.4,45.9 255.5,48.4 350.9,10.6 683.9,-203.4 808.6,-551.9 154.7,-432.8 -70.6,-909.2 -503.5,-1064 z m 765.1,1157.6 c -166.3,464.7 -610.4,750.2 -1078.6,736.1 -113.3,-3.4 -228.1,-24.4 -340.6,-64.6 -341,-122 -585.5,-393.6 -685.9,-714.5 -69.7,-222.4 -70.2,-468.4 14.4,-704.7 8.4,-23.5 17.5,-46.7 27.3,-69.2 44.5,-102.4 102.9,-195 172.2,-276.4 290.4,-341.5 772.5,-485.9 1219.7,-326 577.3,206.5 877.9,841.9 671.5,1419.3" /></g><g
         transform="scale(1.1251)"
         id="g618"><path
           id="path620"
           style="fill:#1a598c;fill-opacity:1;fill-rule:nonzero;stroke:none"
           d="m 15464.9,12803.5 -287.7,89.9 c 108.9,348.1 374.2,642.8 744.2,775.1 122.1,43.7 246.6,66.4 369.5,70.1 l 9.1,-301.3 c -92.3,-2.8 -185.6,-19.9 -277.1,-52.6 -277.4,-99.2 -476.3,-320.1 -558,-581.2" /></g><g
         transform="scale(1.0698)"
         id="g622"><path
           id="path624"
           style="fill:#2273b5;fill-opacity:1;fill-rule:nonzero;stroke:none"
           d="m 16300,12803.2 -290.7,-126.6 c -11.2,25.8 -21.6,52.2 -31.2,79 -96.5,269.7 -95.9,550.4 -16.5,804.2 l 302.6,-94.5 c -59.5,-190.3 -59.9,-400.7 12.3,-602.9 7.3,-20.1 15.1,-39.9 23.5,-59.2" /></g><g
         transform="scale(1.07947)"
         id="g626"><path
           id="path628"
           style="fill:#3788cc;fill-opacity:1;fill-rule:nonzero;stroke:none"
           d="m 16060.6,12250.6 c -78.4,92.1 -144.3,196.8 -194.6,312.6 l 288.1,125.4 c 37.6,-86.9 87.2,-165.4 145.9,-234.4 l -239.4,-203.6" /></g><g
         transform="scale(1.30183)"
         id="g630"><path
           id="path632"
           style="fill:#4aafff;fill-opacity:1;fill-rule:nonzero;stroke:none"
           d="m 16100.9,10020 c -59.1,-124.83 -187.9,-194.27 -317.9,-183.79 -30.9,2.5 -62,9.54 -92.2,21.46 -6.6,2.62 -13.3,5.5 -19.8,8.6 -66,31.22 -116.5,81.91 -147.9,141.93 -45.3,86.7 -50.9,192.8 -5.9,288 14.9,31.4 34.2,59.3 56.7,83.3 93.4,99.2 243.5,131.8 373.2,70.4 161.2,-76.2 230,-268.7 153.8,-429.9 z m -107.7,527.3 c -173.1,81.9 -373.2,38.4 -497.7,-93.9 -30.2,-32 -55.8,-69.2 -75.7,-111.1 -60.1,-127 -52.6,-268.6 7.8,-384.12 41.9,-80.09 109.2,-147.69 197.3,-189.32 8.7,-4.15 17.6,-7.98 26.5,-11.49 40.2,-15.88 81.6,-25.27 123,-28.6 173.3,-13.99 345.1,78.64 423.9,245.15 101.7,214.98 9.9,471.68 -205.1,573.38" /></g><g
         transform="scale(1.24385)"
         id="g634"><path
           id="path636"
           style="fill:#1a598c;fill-opacity:1;fill-rule:nonzero;stroke:none"
           d="m 16246.8,10474.8 -100,-52.4 c -63.2,121 -71,269.1 -8.2,402 20.9,43.9 47.7,82.8 79.3,116.4 l 82.1,-77.4 c -23.6,-25.1 -43.8,-54.3 -59.4,-87.2 -47.1,-99.6 -41.3,-210.7 6.2,-301.4" /></g><g
         transform="scale(1.25318)"
         id="g638"><path
           id="path640"
           style="fill:#2273b5;fill-opacity:1;fill-rule:nonzero;stroke:none"
           d="m 16300,10240.4 -40.9,-104.2 c -9.3,3.7 -18.5,7.6 -27.6,12 -91.4,43.2 -161.4,113.4 -204.9,196.6 l 99.2,52 c 32.6,-62.4 85.1,-115 153.6,-147.5 6.8,-3.2 13.7,-6.2 20.6,-8.9" /></g><g
         transform="scale(1.25206)"
         id="g642"><path
           id="path644"
           style="fill:#e2f3fe;fill-opacity:1;fill-rule:nonzero;stroke:none"
           d="m 16300,9820.47 h -836.1 v 16.61 h 819.5 v 315.82 h 16.6 v -332.43" /></g><g
         transform="scale(1.10507)"
         id="g646"><path
           id="path648"
           style="fill:#4aafff;fill-opacity:1;fill-rule:nonzero;stroke:none"
           d="m 16300,11228.5 h -847.7 v 113 h 847.7 v -113" /></g><g
         transform="scale(1.22164)"
         id="g650"><path
           id="path652"
           style="fill:#4aafff;fill-opacity:1;fill-rule:nonzero;stroke:none"
           d="m 16300,10157.1 h -451 v 102.2 h 451 v -102.2" /></g><g
         transform="scale(1.06208)"
         id="g654"><path
           id="path656"
           style="fill:#4aafff;fill-opacity:1;fill-rule:nonzero;stroke:none"
           d="m 16300,15525.1 h -422.2 v 90.2 h 422.2 v -90.2" /></g><g
         transform="scale(1.19192)"
         id="g658"><path
           id="path660"
           style="fill:#4aafff;fill-opacity:1;fill-rule:nonzero;stroke:none"
           d="m 16300,13531.2 h -583.7 v 80.4 h 583.7 v -80.4" /></g><g
         transform="scale(1.12011)"
         id="g662"><path
           id="path664"
           style="fill:#4aafff;fill-opacity:1;fill-rule:nonzero;stroke:none"
           d="m 16300,14398.7 h -379.1 v 85.5 h 379.1 v -85.5" /></g><g
         transform="scale(1.08619)"
         id="g666"><path
           id="path668"
           style="fill:#4aafff;fill-opacity:1;fill-rule:nonzero;stroke:none"
           d="m 16300,14848.3 h -774.6 v 88.2 h 774.6 v -88.2" /></g><g
         transform="scale(1.11121)"
         id="g670"><path
           id="path672"
           style="fill:#4aafff;fill-opacity:1;fill-rule:nonzero;stroke:none"
           d="m 16300,14838.7 h -597.8 v 86.2 h 597.8 v -86.2" /></g><g
         transform="scale(1.13947)"
         id="g674"><path
           id="path676"
           style="fill:#4aafff;fill-opacity:1;fill-rule:nonzero;stroke:none"
           d="m 16300,14154.1 h -160.2 v 84.1 h 160.2 v -84.1" /></g><g
         transform="scale(1.19192)"
         id="g678"><path
           id="path680"
           style="fill:#4aafff;fill-opacity:1;fill-rule:nonzero;stroke:none"
           d="m 16300,13829.4 h -416.4 v 80.4 h 416.4 v -80.4" /></g><g
         transform="scale(1.22874)"
         id="g682"><path
           id="path684"
           style="fill:#4aafff;fill-opacity:1;fill-rule:nonzero;stroke:none"
           d="m 16300,13125.7 h -344.4 v 78 h 344.4 v -78" /></g><g
         transform="scale(1.1535)"
         id="g686"><path
           id="path688"
           style="fill:#4aafff;fill-opacity:1;fill-rule:nonzero;stroke:none"
           d="m 16300,14290 h -456 v 83.1 h 456 v -83.1" /></g><g
         transform="scale(1.21152)"
         id="g690"><path
           id="path692"
           style="fill:#ffffff;fill-opacity:1;fill-rule:nonzero;stroke:none"
           d="m 16091.3,8564.31 h -688.6 c -115.3,0 -208.8,93.45 -208.8,208.74 v 688.58 c 0,115.29 93.5,208.74 208.8,208.74 h 688.6 c 115.3,0 208.7,-93.45 208.7,-208.74 v -688.58 c 0,-115.29 -93.4,-208.74 -208.7,-208.74" /></g><g
         transform="scale(1.1743)"
         id="g694"><path
           id="path696"
           style="fill:#c5ccd1;fill-opacity:1;fill-rule:nonzero;stroke:none"
           d="m 16300,9179.26 h -108 v 454.02 h 108 v -454.02" /></g><g
         transform="scale(1.18677)"
         id="g698"><path
           id="path700"
           style="fill:#c5ccd1;fill-opacity:1;fill-rule:nonzero;stroke:none"
           d="m 15850.7,9254.05 v 106.83 h 449.3 v -106.83 h -449.3" /></g><g
         id="g702"><g
           clip-path="url(#clipPath708)"
           id="g704"><g
             transform="scale(1.46066)"
             id="g710"><path
               id="path718"
               style="fill:url(#linearGradient716);fill-opacity:1;fill-rule:nonzero;stroke:none"
               d="m 16279.6,11480.6 -775.1,775.1 -368,-367.9 -20.4,20.4 388.4,388.3 795.5,-795.5 -20.4,-20.4" /></g></g></g></g></g></svg>